<?xml version="1.0" encoding="UTF-8" standalone="no"?>
<svg
   xmlns:dc="http://purl.org/dc/elements/1.1/"
   xmlns:cc="http://creativecommons.org/ns#"
   xmlns:rdf="http://www.w3.org/1999/02/22-rdf-syntax-ns#"
   xmlns:svg="http://www.w3.org/2000/svg"
   xmlns="http://www.w3.org/2000/svg"
   xmlns:sodipodi="http://sodipodi.sourceforge.net/DTD/sodipodi-0.dtd"
   xmlns:inkscape="http://www.inkscape.org/namespaces/inkscape"
   sodipodi:docname="meadow-middle.svg"
   inkscape:version="1.0 (6e3e5246a0, 2020-05-07)"
   id="svg5238"
   version="1.1"
   viewBox="0 0 327.26513 27.088951"
   height="27.088951mm"
   width="327.26514mm">
  <defs
     id="defs5232">
    <inkscape:path-effect
       lpeversion="1"
       is_visible="true"
       id="path-effect5873"
       effect="spiro" />
    <inkscape:path-effect
       lpeversion="1"
       is_visible="true"
       id="path-effect5807"
       effect="spiro" />
    <inkscape:path-effect
       lpeversion="1"
       is_visible="true"
       id="path-effect5803"
       effect="spiro" />
    <clipPath
       id="clipPath5930"
       clipPathUnits="userSpaceOnUse">
      <rect
         y="1.9145141"
         x="-29.128399"
         height="58.967907"
         width="326.56326"
         id="rect5932"
         style="opacity:0.996;fill:#ff0000;fill-opacity:1;stroke:#da4b4b;stroke-width:0;paint-order:stroke fill markers" />
    </clipPath>
    <clipPath
       id="clipPath5934"
       clipPathUnits="userSpaceOnUse">
      <rect
         y="1.9145141"
         x="-29.128399"
         height="58.967907"
         width="326.56326"
         id="rect5936"
         style="opacity:0.996;fill:#ff0000;fill-opacity:1;stroke:#da4b4b;stroke-width:0;paint-order:stroke fill markers" />
    </clipPath>
    <clipPath
       id="clipPath5938"
       clipPathUnits="userSpaceOnUse">
      <rect
         y="1.9145141"
         x="-29.128399"
         height="58.967907"
         width="326.56326"
         id="rect5940"
         style="opacity:0.996;fill:#ff0000;fill-opacity:1;stroke:#da4b4b;stroke-width:0;paint-order:stroke fill markers" />
    </clipPath>
    <clipPath
       id="clipPath5942"
       clipPathUnits="userSpaceOnUse">
      <rect
         y="1.9145141"
         x="-29.128399"
         height="58.967907"
         width="326.56326"
         id="rect5944"
         style="opacity:0.996;fill:#ff0000;fill-opacity:1;stroke:#da4b4b;stroke-width:0;paint-order:stroke fill markers" />
    </clipPath>
    <clipPath
       id="clipPath5946"
       clipPathUnits="userSpaceOnUse">
      <rect
         y="1.9145141"
         x="-29.128399"
         height="58.967907"
         width="326.56326"
         id="rect5948"
         style="opacity:0.996;fill:#ff0000;fill-opacity:1;stroke:#da4b4b;stroke-width:0;paint-order:stroke fill markers" />
    </clipPath>
    <clipPath
       id="clipPath5950"
       clipPathUnits="userSpaceOnUse">
      <rect
         y="1.9145141"
         x="-29.128399"
         height="58.967907"
         width="326.56326"
         id="rect5952"
         style="opacity:0.996;fill:#ff0000;fill-opacity:1;stroke:#da4b4b;stroke-width:0;paint-order:stroke fill markers" />
    </clipPath>
    <clipPath
       id="clipPath5954"
       clipPathUnits="userSpaceOnUse">
      <rect
         y="1.9145141"
         x="-29.128399"
         height="58.967907"
         width="326.56326"
         id="rect5956"
         style="opacity:0.996;fill:#ff0000;fill-opacity:1;stroke:#da4b4b;stroke-width:0;paint-order:stroke fill markers" />
    </clipPath>
    <clipPath
       id="clipPath5958"
       clipPathUnits="userSpaceOnUse">
      <rect
         y="1.9145141"
         x="-29.128399"
         height="58.967907"
         width="326.56326"
         id="rect5960"
         style="opacity:0.996;fill:#ff0000;fill-opacity:1;stroke:#da4b4b;stroke-width:0;paint-order:stroke fill markers" />
    </clipPath>
    <clipPath
       id="clipPath5962"
       clipPathUnits="userSpaceOnUse">
      <rect
         y="1.9145141"
         x="-29.128399"
         height="58.967907"
         width="326.56326"
         id="rect5964"
         style="opacity:0.996;fill:#ff0000;fill-opacity:1;stroke:#da4b4b;stroke-width:0;paint-order:stroke fill markers" />
    </clipPath>
    <clipPath
       id="clipPath5966"
       clipPathUnits="userSpaceOnUse">
      <rect
         y="1.9145141"
         x="-29.128399"
         height="58.967907"
         width="326.56326"
         id="rect5968"
         style="opacity:0.996;fill:#ff0000;fill-opacity:1;stroke:#da4b4b;stroke-width:0;paint-order:stroke fill markers" />
    </clipPath>
    <clipPath
       id="clipPath5970"
       clipPathUnits="userSpaceOnUse">
      <rect
         y="1.9145141"
         x="-29.128399"
         height="58.967907"
         width="326.56326"
         id="rect5972"
         style="opacity:0.996;fill:#ff0000;fill-opacity:1;stroke:#da4b4b;stroke-width:0;paint-order:stroke fill markers" />
    </clipPath>
    <clipPath
       id="clipPath5974"
       clipPathUnits="userSpaceOnUse">
      <rect
         y="1.9145141"
         x="-29.128399"
         height="58.967907"
         width="326.56326"
         id="rect5976"
         style="opacity:0.996;fill:#ff0000;fill-opacity:1;stroke:#da4b4b;stroke-width:0;paint-order:stroke fill markers" />
    </clipPath>
    <clipPath
       id="clipPath5978"
       clipPathUnits="userSpaceOnUse">
      <rect
         y="1.9145141"
         x="-29.128399"
         height="58.967907"
         width="326.56326"
         id="rect5980"
         style="opacity:0.996;fill:#ff0000;fill-opacity:1;stroke:#da4b4b;stroke-width:0;paint-order:stroke fill markers" />
    </clipPath>
    <clipPath
       id="clipPath5982"
       clipPathUnits="userSpaceOnUse">
      <rect
         y="1.9145141"
         x="-29.128399"
         height="58.967907"
         width="326.56326"
         id="rect5984"
         style="opacity:0.996;fill:#ff0000;fill-opacity:1;stroke:#da4b4b;stroke-width:0;paint-order:stroke fill markers" />
    </clipPath>
    <clipPath
       id="clipPath5986"
       clipPathUnits="userSpaceOnUse">
      <rect
         y="1.9145141"
         x="-29.128399"
         height="58.967907"
         width="326.56326"
         id="rect5988"
         style="opacity:0.996;fill:#ff0000;fill-opacity:1;stroke:#da4b4b;stroke-width:0;paint-order:stroke fill markers" />
    </clipPath>
    <clipPath
       id="clipPath5990"
       clipPathUnits="userSpaceOnUse">
      <rect
         y="1.9145141"
         x="-29.128399"
         height="58.967907"
         width="326.56326"
         id="rect5992"
         style="opacity:0.996;fill:#ff0000;fill-opacity:1;stroke:#da4b4b;stroke-width:0;paint-order:stroke fill markers" />
    </clipPath>
    <clipPath
       id="clipPath5994"
       clipPathUnits="userSpaceOnUse">
      <rect
         y="1.9145141"
         x="-29.128399"
         height="58.967907"
         width="326.56326"
         id="rect5996"
         style="opacity:0.996;fill:#ff0000;fill-opacity:1;stroke:#da4b4b;stroke-width:0;paint-order:stroke fill markers" />
    </clipPath>
    <clipPath
       id="clipPath5998"
       clipPathUnits="userSpaceOnUse">
      <rect
         y="1.9145141"
         x="-29.128399"
         height="58.967907"
         width="326.56326"
         id="rect6000"
         style="opacity:0.996;fill:#ff0000;fill-opacity:1;stroke:#da4b4b;stroke-width:0;paint-order:stroke fill markers" />
    </clipPath>
    <clipPath
       id="clipPath6002"
       clipPathUnits="userSpaceOnUse">
      <rect
         y="7.2359586"
         x="-110.09158"
         height="222.87083"
         width="1234.2549"
         id="rect6004"
         style="opacity:0.996;fill:#ff0000;fill-opacity:1;stroke:#da4b4b;stroke-width:0;paint-order:stroke fill markers" />
    </clipPath>
    <clipPath
       id="clipPath6006"
       clipPathUnits="userSpaceOnUse">
      <rect
         y="1.9145141"
         x="-29.128399"
         height="58.967907"
         width="326.56326"
         id="rect6008"
         style="opacity:0.996;fill:#ff0000;fill-opacity:1;stroke:#da4b4b;stroke-width:0;paint-order:stroke fill markers" />
    </clipPath>
    <clipPath
       id="clipPath6010"
       clipPathUnits="userSpaceOnUse">
      <rect
         y="1.9145141"
         x="-29.128399"
         height="58.967907"
         width="326.56326"
         id="rect6012"
         style="opacity:0.996;fill:#ff0000;fill-opacity:1;stroke:#da4b4b;stroke-width:0;paint-order:stroke fill markers" />
    </clipPath>
    <clipPath
       id="clipPath6014"
       clipPathUnits="userSpaceOnUse">
      <rect
         y="1.9145141"
         x="-29.128399"
         height="58.967907"
         width="326.56326"
         id="rect6016"
         style="opacity:0.996;fill:#ff0000;fill-opacity:1;stroke:#da4b4b;stroke-width:0;paint-order:stroke fill markers" />
    </clipPath>
    <clipPath
       id="clipPath6018"
       clipPathUnits="userSpaceOnUse">
      <rect
         y="1.9145141"
         x="-29.128399"
         height="58.967907"
         width="326.56326"
         id="rect6020"
         style="opacity:0.996;fill:#ff0000;fill-opacity:1;stroke:#da4b4b;stroke-width:0;paint-order:stroke fill markers" />
    </clipPath>
    <clipPath
       id="clipPath6022"
       clipPathUnits="userSpaceOnUse">
      <rect
         y="1.9145141"
         x="-29.128399"
         height="58.967907"
         width="326.56326"
         id="rect6024"
         style="opacity:0.996;fill:#ff0000;fill-opacity:1;stroke:#da4b4b;stroke-width:0;paint-order:stroke fill markers" />
    </clipPath>
    <clipPath
       clipPathUnits="userSpaceOnUse"
       id="clipPath1733">
      <rect
         style="opacity:0.996;fill:#ff0000;stroke:#da4b4b;stroke-width:0;paint-order:stroke fill markers"
         id="rect1735"
         width="326.74835"
         height="30.181034"
         x="-29.128672"
         y="20.51919" />
    </clipPath>
    <clipPath
       clipPathUnits="userSpaceOnUse"
       id="clipPath1737">
      <rect
         style="opacity:0.996;fill:#ff0000;stroke:#da4b4b;stroke-width:0;paint-order:stroke fill markers"
         id="rect1739"
         width="326.74835"
         height="30.181034"
         x="-29.128672"
         y="20.51919" />
    </clipPath>
    <clipPath
       clipPathUnits="userSpaceOnUse"
       id="clipPath1741">
      <rect
         style="opacity:0.996;fill:#ff0000;stroke:#da4b4b;stroke-width:0;paint-order:stroke fill markers"
         id="rect1743"
         width="326.74835"
         height="30.181034"
         x="-29.128672"
         y="20.51919" />
    </clipPath>
    <clipPath
       clipPathUnits="userSpaceOnUse"
       id="clipPath1745">
      <rect
         style="opacity:0.996;fill:#ff0000;stroke:#da4b4b;stroke-width:0;paint-order:stroke fill markers"
         id="rect1747"
         width="326.74835"
         height="30.181034"
         x="-29.128672"
         y="20.51919" />
    </clipPath>
    <clipPath
       clipPathUnits="userSpaceOnUse"
       id="clipPath1749">
      <rect
         style="opacity:0.996;fill:#ff0000;stroke:#da4b4b;stroke-width:0;paint-order:stroke fill markers"
         id="rect1751"
         width="326.74835"
         height="30.181034"
         x="-29.128672"
         y="20.51919" />
    </clipPath>
    <clipPath
       clipPathUnits="userSpaceOnUse"
       id="clipPath1753">
      <rect
         style="opacity:0.996;fill:#ff0000;stroke:#da4b4b;stroke-width:0;paint-order:stroke fill markers"
         id="rect1755"
         width="326.74835"
         height="30.181034"
         x="-29.128672"
         y="20.51919" />
    </clipPath>
    <clipPath
       clipPathUnits="userSpaceOnUse"
       id="clipPath1757">
      <rect
         style="opacity:0.996;fill:#ff0000;stroke:#da4b4b;stroke-width:0;paint-order:stroke fill markers"
         id="rect1759"
         width="326.74835"
         height="30.181034"
         x="-29.128672"
         y="20.51919" />
    </clipPath>
    <clipPath
       clipPathUnits="userSpaceOnUse"
       id="clipPath1761">
      <rect
         style="opacity:0.996;fill:#ff0000;stroke:#da4b4b;stroke-width:0;paint-order:stroke fill markers"
         id="rect1763"
         width="326.74835"
         height="30.181034"
         x="-29.128672"
         y="20.51919" />
    </clipPath>
    <clipPath
       clipPathUnits="userSpaceOnUse"
       id="clipPath1765">
      <rect
         style="opacity:0.996;fill:#ff0000;stroke:#da4b4b;stroke-width:0;paint-order:stroke fill markers"
         id="rect1767"
         width="326.74835"
         height="30.181034"
         x="-29.128672"
         y="20.51919" />
    </clipPath>
    <clipPath
       clipPathUnits="userSpaceOnUse"
       id="clipPath1769">
      <rect
         style="opacity:0.996;fill:#ff0000;stroke:#da4b4b;stroke-width:0;paint-order:stroke fill markers"
         id="rect1771"
         width="326.74835"
         height="30.181034"
         x="-29.128672"
         y="20.51919" />
    </clipPath>
    <clipPath
       clipPathUnits="userSpaceOnUse"
       id="clipPath1773">
      <rect
         style="opacity:0.996;fill:#ff0000;stroke:#da4b4b;stroke-width:0;paint-order:stroke fill markers"
         id="rect1775"
         width="326.74835"
         height="30.181034"
         x="-3.1123385"
         y="17.361605" />
    </clipPath>
    <clipPath
       clipPathUnits="userSpaceOnUse"
       id="clipPath1777">
      <rect
         style="opacity:0.996;fill:#ff0000;stroke:#da4b4b;stroke-width:0;paint-order:stroke fill markers"
         id="rect1779"
         width="326.74835"
         height="30.181034"
         x="-3.1123385"
         y="17.361605" />
    </clipPath>
    <clipPath
       clipPathUnits="userSpaceOnUse"
       id="clipPath1781">
      <rect
         style="opacity:0.996;fill:#ff0000;stroke:#da4b4b;stroke-width:0;paint-order:stroke fill markers"
         id="rect1783"
         width="326.74835"
         height="30.181034"
         x="-3.1123385"
         y="17.361605" />
    </clipPath>
    <clipPath
       clipPathUnits="userSpaceOnUse"
       id="clipPath1785">
      <rect
         style="opacity:0.996;fill:#ff0000;stroke:#da4b4b;stroke-width:0;paint-order:stroke fill markers"
         id="rect1787"
         width="326.74835"
         height="30.181034"
         x="-3.1123385"
         y="17.361605" />
    </clipPath>
    <clipPath
       clipPathUnits="userSpaceOnUse"
       id="clipPath1789">
      <rect
         style="opacity:0.996;fill:#ff0000;stroke:#da4b4b;stroke-width:0;paint-order:stroke fill markers"
         id="rect1791"
         width="326.74835"
         height="30.181034"
         x="-3.1123385"
         y="17.361605" />
    </clipPath>
    <clipPath
       clipPathUnits="userSpaceOnUse"
       id="clipPath1793">
      <rect
         style="opacity:0.996;fill:#ff0000;stroke:#da4b4b;stroke-width:0;paint-order:stroke fill markers"
         id="rect1795"
         width="326.74835"
         height="30.181034"
         x="-3.1123385"
         y="17.361605" />
    </clipPath>
    <clipPath
       clipPathUnits="userSpaceOnUse"
       id="clipPath1797">
      <rect
         style="opacity:0.996;fill:#ff0000;stroke:#da4b4b;stroke-width:0;paint-order:stroke fill markers"
         id="rect1799"
         width="326.74835"
         height="30.181034"
         x="-29.128672"
         y="20.51919" />
    </clipPath>
    <clipPath
       clipPathUnits="userSpaceOnUse"
       id="clipPath1801">
      <rect
         style="opacity:0.996;fill:#ff0000;stroke:#da4b4b;stroke-width:0;paint-order:stroke fill markers"
         id="rect1803"
         width="326.74835"
         height="30.181034"
         x="-29.128672"
         y="20.51919" />
    </clipPath>
    <clipPath
       clipPathUnits="userSpaceOnUse"
       id="clipPath1805">
      <rect
         style="opacity:0.996;fill:#ff0000;stroke:#da4b4b;stroke-width:0;paint-order:stroke fill markers"
         id="rect1807"
         width="1234.9543"
         height="114.07005"
         x="-110.09262"
         y="77.552849" />
    </clipPath>
    <clipPath
       clipPathUnits="userSpaceOnUse"
       id="clipPath1809">
      <rect
         style="opacity:0.996;fill:#ff0000;stroke:#da4b4b;stroke-width:0;paint-order:stroke fill markers"
         id="rect1811"
         width="326.74835"
         height="30.181034"
         x="-2.6028078"
         y="20.147047" />
    </clipPath>
    <clipPath
       clipPathUnits="userSpaceOnUse"
       id="clipPath1813">
      <rect
         style="opacity:0.996;fill:#ff0000;stroke:#da4b4b;stroke-width:0;paint-order:stroke fill markers"
         id="rect1815"
         width="326.74835"
         height="30.181034"
         x="-2.6028078"
         y="20.147047" />
    </clipPath>
    <clipPath
       clipPathUnits="userSpaceOnUse"
       id="clipPath1817">
      <rect
         style="opacity:0.996;fill:#ff0000;stroke:#da4b4b;stroke-width:0;paint-order:stroke fill markers"
         id="rect1819"
         width="326.74835"
         height="30.181034"
         x="-2.6028078"
         y="20.147047" />
    </clipPath>
    <clipPath
       clipPathUnits="userSpaceOnUse"
       id="clipPath1821">
      <rect
         style="opacity:0.996;fill:#ff0000;stroke:#da4b4b;stroke-width:0;paint-order:stroke fill markers"
         id="rect1823"
         width="326.74835"
         height="30.181034"
         x="-1.4737706"
         y="18.46735" />
    </clipPath>
    <clipPath
       clipPathUnits="userSpaceOnUse"
       id="clipPath1825">
      <rect
         style="opacity:0.996;fill:#ff0000;stroke:#da4b4b;stroke-width:0;paint-order:stroke fill markers"
         id="rect1827"
         width="326.74835"
         height="30.181034"
         x="-29.128672"
         y="20.51919" />
    </clipPath>
    <clipPath
       clipPathUnits="userSpaceOnUse"
       id="clipPath1833">
      <rect
         style="opacity:0.996;fill:#ffd5d5;stroke:#da4b4b;stroke-width:0;paint-order:stroke fill markers"
         id="rect1835"
         width="327.26514"
         height="27.088951"
         x="-16.733967"
         y="22.88965" />
    </clipPath>
    <clipPath
       clipPathUnits="userSpaceOnUse"
       id="clipPath1837">
      <rect
         style="opacity:0.996;fill:#ffd5d5;stroke:#da4b4b;stroke-width:0;paint-order:stroke fill markers"
         id="rect1839"
         width="327.26514"
         height="27.088951"
         x="-16.733967"
         y="22.88965" />
    </clipPath>
    <clipPath
       clipPathUnits="userSpaceOnUse"
       id="clipPath1841">
      <rect
         style="opacity:0.996;fill:#ffd5d5;stroke:#da4b4b;stroke-width:0;paint-order:stroke fill markers"
         id="rect1843"
         width="327.26514"
         height="27.088951"
         x="-16.733967"
         y="22.88965" />
    </clipPath>
    <clipPath
       clipPathUnits="userSpaceOnUse"
       id="clipPath1845">
      <rect
         style="opacity:0.996;fill:#ffd5d5;stroke:#da4b4b;stroke-width:0;paint-order:stroke fill markers"
         id="rect1847"
         width="327.26514"
         height="27.088951"
         x="-16.733967"
         y="22.88965" />
    </clipPath>
    <clipPath
       clipPathUnits="userSpaceOnUse"
       id="clipPath1849">
      <rect
         style="opacity:0.996;fill:#ffd5d5;stroke:#da4b4b;stroke-width:0;paint-order:stroke fill markers"
         id="rect1851"
         width="327.26514"
         height="27.088951"
         x="-16.733967"
         y="22.88965" />
    </clipPath>
    <clipPath
       clipPathUnits="userSpaceOnUse"
       id="clipPath1853">
      <rect
         style="opacity:0.996;fill:#ffd5d5;stroke:#da4b4b;stroke-width:0;paint-order:stroke fill markers"
         id="rect1855"
         width="327.26514"
         height="27.088951"
         x="-16.733967"
         y="22.88965" />
    </clipPath>
    <clipPath
       clipPathUnits="userSpaceOnUse"
       id="clipPath1857">
      <rect
         style="opacity:0.996;fill:#ffd5d5;stroke:#da4b4b;stroke-width:0;paint-order:stroke fill markers"
         id="rect1859"
         width="327.26514"
         height="27.088951"
         x="-16.733967"
         y="22.88965" />
    </clipPath>
    <clipPath
       clipPathUnits="userSpaceOnUse"
       id="clipPath1861">
      <rect
         style="opacity:0.996;fill:#ffd5d5;stroke:#da4b4b;stroke-width:0;paint-order:stroke fill markers"
         id="rect1863"
         width="327.26514"
         height="27.088951"
         x="-16.733967"
         y="22.88965" />
    </clipPath>
    <clipPath
       clipPathUnits="userSpaceOnUse"
       id="clipPath1865">
      <rect
         style="opacity:0.996;fill:#ffd5d5;stroke:#da4b4b;stroke-width:0;paint-order:stroke fill markers"
         id="rect1867"
         width="327.26514"
         height="27.088951"
         x="-16.733967"
         y="22.88965" />
    </clipPath>
    <clipPath
       clipPathUnits="userSpaceOnUse"
       id="clipPath1869">
      <rect
         style="opacity:0.996;fill:#ffd5d5;stroke:#da4b4b;stroke-width:0;paint-order:stroke fill markers"
         id="rect1871"
         width="327.26514"
         height="27.088951"
         x="-3.0661254"
         y="19.568096" />
    </clipPath>
    <clipPath
       clipPathUnits="userSpaceOnUse"
       id="clipPath1873">
      <rect
         style="opacity:0.996;fill:#ffd5d5;stroke:#da4b4b;stroke-width:0;paint-order:stroke fill markers"
         id="rect1875"
         width="327.26514"
         height="27.088951"
         x="-3.0661254"
         y="19.568096" />
    </clipPath>
    <clipPath
       clipPathUnits="userSpaceOnUse"
       id="clipPath1877">
      <rect
         style="opacity:0.996;fill:#ffd5d5;stroke:#da4b4b;stroke-width:0;paint-order:stroke fill markers"
         id="rect1879"
         width="327.26514"
         height="27.088951"
         x="-3.0661254"
         y="19.568096" />
    </clipPath>
    <clipPath
       clipPathUnits="userSpaceOnUse"
       id="clipPath1881">
      <rect
         style="opacity:0.996;fill:#ffd5d5;stroke:#da4b4b;stroke-width:0;paint-order:stroke fill markers"
         id="rect1883"
         width="327.26514"
         height="27.088951"
         x="-3.0661254"
         y="19.568096" />
    </clipPath>
    <clipPath
       clipPathUnits="userSpaceOnUse"
       id="clipPath1885">
      <rect
         style="opacity:0.996;fill:#ffd5d5;stroke:#da4b4b;stroke-width:0;paint-order:stroke fill markers"
         id="rect1887"
         width="327.26514"
         height="27.088951"
         x="-3.0661254"
         y="19.568096" />
    </clipPath>
    <clipPath
       clipPathUnits="userSpaceOnUse"
       id="clipPath1889">
      <rect
         style="opacity:0.996;fill:#ffd5d5;stroke:#da4b4b;stroke-width:0;paint-order:stroke fill markers"
         id="rect1891"
         width="327.26514"
         height="27.088951"
         x="-3.0661254"
         y="19.568096" />
    </clipPath>
    <clipPath
       clipPathUnits="userSpaceOnUse"
       id="clipPath1893">
      <rect
         style="opacity:0.996;fill:#ffd5d5;stroke:#da4b4b;stroke-width:0;paint-order:stroke fill markers"
         id="rect1895"
         width="327.26514"
         height="27.088951"
         x="-29.082458"
         y="22.725681" />
    </clipPath>
    <clipPath
       clipPathUnits="userSpaceOnUse"
       id="clipPath1897">
      <rect
         style="opacity:0.996;fill:#ffd5d5;stroke:#da4b4b;stroke-width:0;paint-order:stroke fill markers"
         id="rect1899"
         width="327.26514"
         height="27.088951"
         x="-29.082458"
         y="22.725681" />
    </clipPath>
    <clipPath
       clipPathUnits="userSpaceOnUse"
       id="clipPath1901">
      <rect
         style="opacity:0.996;fill:#ffd5d5;stroke:#da4b4b;stroke-width:0;paint-order:stroke fill markers"
         id="rect1903"
         width="1236.9076"
         height="102.38344"
         x="-109.91795"
         y="85.892342" />
    </clipPath>
    <clipPath
       clipPathUnits="userSpaceOnUse"
       id="clipPath1905">
      <rect
         style="opacity:0.996;fill:#ffd5d5;stroke:#da4b4b;stroke-width:0;paint-order:stroke fill markers"
         id="rect1907"
         width="327.26514"
         height="27.088951"
         x="-2.5565946"
         y="22.353537" />
    </clipPath>
    <clipPath
       clipPathUnits="userSpaceOnUse"
       id="clipPath1909">
      <rect
         style="opacity:0.996;fill:#ffd5d5;stroke:#da4b4b;stroke-width:0;paint-order:stroke fill markers"
         id="rect1911"
         width="327.26514"
         height="27.088951"
         x="-2.5565946"
         y="22.353537" />
    </clipPath>
    <clipPath
       clipPathUnits="userSpaceOnUse"
       id="clipPath1913">
      <rect
         style="opacity:0.996;fill:#ffd5d5;stroke:#da4b4b;stroke-width:0;paint-order:stroke fill markers"
         id="rect1915"
         width="327.26514"
         height="27.088951"
         x="-2.5565946"
         y="22.353537" />
    </clipPath>
    <clipPath
       clipPathUnits="userSpaceOnUse"
       id="clipPath1917">
      <rect
         style="opacity:0.996;fill:#ffd5d5;stroke:#da4b4b;stroke-width:0;paint-order:stroke fill markers"
         id="rect1919"
         width="327.26514"
         height="27.088951"
         x="-1.4275575"
         y="20.67384" />
    </clipPath>
    <clipPath
       clipPathUnits="userSpaceOnUse"
       id="clipPath1921">
      <rect
         style="opacity:0.996;fill:#ffd5d5;stroke:#da4b4b;stroke-width:0;paint-order:stroke fill markers"
         id="rect1923"
         width="327.26514"
         height="27.088951"
         x="-29.082458"
         y="22.725681" />
    </clipPath>
    <clipPath
       clipPathUnits="userSpaceOnUse"
       id="clipPath2010">
      <rect
         style="opacity:0.993;fill:#ffcc00;fill-opacity:1;stroke:#da4b4b;stroke-width:0;paint-order:stroke fill markers"
         id="rect2012"
         width="206.93108"
         height="27.449608"
         x="-12.679563"
         y="22.438385" />
    </clipPath>
    <clipPath
       clipPathUnits="userSpaceOnUse"
       id="clipPath2014">
      <rect
         style="opacity:0.993;fill:#ffcc00;fill-opacity:1;stroke:#da4b4b;stroke-width:0;paint-order:stroke fill markers"
         id="rect2016"
         width="327.30304"
         height="27.449608"
         x="-28.961195"
         y="22.740765" />
    </clipPath>
    <clipPath
       clipPathUnits="userSpaceOnUse"
       id="clipPath2018">
      <rect
         style="opacity:0.993;fill:#ffcc00;fill-opacity:1;stroke:#da4b4b;stroke-width:0;paint-order:stroke fill markers"
         id="rect2020"
         width="327.30304"
         height="27.449608"
         x="-28.961195"
         y="22.740765" />
    </clipPath>
    <clipPath
       clipPathUnits="userSpaceOnUse"
       id="clipPath2022">
      <rect
         style="opacity:0.993;fill:#ffcc00;fill-opacity:1;stroke:#da4b4b;stroke-width:0;paint-order:stroke fill markers"
         id="rect2024"
         width="161.49835"
         height="6.7434759"
         x="174.558"
         y="60.948322"
         transform="matrix(0.99419697,-0.10757505,0.49729556,0.86758119,0,0)" />
    </clipPath>
    <clipPath
       clipPathUnits="userSpaceOnUse"
       id="clipPath2026">
      <rect
         style="opacity:0.993;fill:#ffcc00;fill-opacity:1;stroke:#da4b4b;stroke-width:0;paint-order:stroke fill markers"
         id="rect2028"
         width="327.30304"
         height="27.449608"
         x="-28.961195"
         y="22.740765" />
    </clipPath>
  </defs>
  <sodipodi:namedview
     inkscape:snap-nodes="true"
     fit-margin-bottom="0"
     fit-margin-right="0"
     fit-margin-left="0"
     fit-margin-top="0"
     inkscape:window-maximized="1"
     inkscape:window-y="27"
     inkscape:window-x="1920"
     inkscape:window-height="972"
     inkscape:window-width="1920"
     inkscape:snap-bbox-midpoints="true"
     inkscape:snap-bbox-edge-midpoints="true"
     inkscape:bbox-nodes="true"
     inkscape:bbox-paths="true"
     inkscape:snap-bbox="true"
     showgrid="false"
     inkscape:document-rotation="0"
     inkscape:current-layer="layer1"
     inkscape:document-units="mm"
     inkscape:cy="103.90526"
     inkscape:cx="659.93686"
     inkscape:zoom="0.7"
     inkscape:pageshadow="2"
     inkscape:pageopacity="0.0"
     borderopacity="1.0"
     bordercolor="#666666"
     pagecolor="#ffffff"
     id="base" />
  <metadata
     id="metadata5235">
    <rdf:RDF>
      <cc:Work
         rdf:about="">
        <dc:format>image/svg+xml</dc:format>
        <dc:type
           rdf:resource="http://purl.org/dc/dcmitype/StillImage" />
        <dc:title />
      </cc:Work>
    </rdf:RDF>
  </metadata>
  <g
     transform="translate(29.082458,-22.725681)"
     id="layer1"
     inkscape:groupmode="layer"
     inkscape:label="Layer 1">
    <rect
       style="opacity:0.993;fill:#82d799;fill-opacity:1;stroke:#da4b4b;stroke-width:0;paint-order:stroke fill markers"
       id="rect1974"
       width="327.30304"
       height="27.449608"
       x="-28.961195"
       y="22.740765"
       clip-path="url(#clipPath2026)" />
    <path
       clip-path="url(#clipPath2022)"
       sodipodi:nodetypes="sscsssccsssscs"
       id="path5881"
       d="M 293.26297,60.723738 C 260.34126,50.834994 225.89136,43.624054 187.82513,38.653835 l -2.6727,-0.348967 2.13816,-0.333153 c 3.93741,-0.613503 16.51431,-2.162688 21.9161,-2.699562 15.43845,-1.534406 28.33666,-2.330895 42.16743,-2.603924 l 22.37815,-0.08674 c 0,1.1e-5 0,1.1e-5 0,1.1e-5 l 1.67045,0.0027 c 2.47639,0.004 14.40498,0.496062 19.31022,0.796571 5.23086,0.320458 16.01216,1.118386 16.10055,1.191609 0.0354,0.02933 -3.03151,6.187302 -6.81537,13.684385 l -6.87975,13.631055 z"
       style="opacity:0.996;fill:#ace4bb;fill-opacity:1;stroke:#da4b4b;stroke-width:0;paint-order:stroke fill markers"
       transform="matrix(1.9194471,0.47802205,-1.1002227,4.4178282,-382.73177,-225.35199)" />
    <path
       transform="translate(-26.633644,-0.88780106)"
       d="m 274.22518,30.908064 c -0.36794,0.38446 -0.62971,0.96337 -1.09537,1.13563 -0.58315,0.21375 -1.17299,-0.3168 -1.74202,-0.12139 -0.65052,0.22475 -1.08162,1.11082 -1.48943,1.67432 -0.89993,-0.92993 -1.52435,-1.73895 -2.84445,-1.65488 -1.15605,0.073 -2.31916,0.85008 -2.87196,2.09585 0.10195,-0.23001 -1.79952,-0.29214 -1.96356,-0.25054 -0.6103,0.15282 -1.34479,0.51787 -1.58185,1.27455 -0.31151,-0.60068 -0.86537,-1.00997 -1.45662,-1.0819 -0.59408,-0.0703 -1.21285,0.19995 -1.63442,0.71257 0.084,-0.30868 -0.0483,-0.65193 -0.25788,-0.85573 -0.20638,-0.2026 -0.47661,-0.29217 -0.74119,-0.36093 -0.6918,-0.17928 -1.40547,-0.24694 -2.11667,-0.19582 -0.82973,-2.24896 -3.5941,-1.44431 -4.91137,-0.12277 -0.32103,0.32244 -0.61313,0.70693 -0.99624,0.91087 -0.27023,0.14499 -0.56903,0.19018 -0.86149,0.24268 -0.89429,0.16122 -1.77906,0.41342 -2.64019,0.75392 -1.10948,0.43533 -1.62454,1.64677 -2.60173,1.89191 -0.55386,0.13903 -1.03505,-0.0222 -1.62066,0.28265 -0.12947,0.0674 -1.48273,1.13273 -1.38607,1.21528 -0.88194,-0.75254 -2.21191,-0.66008 -3.03883,0.21237 -0.23283,0.24515 -3.31963,-0.70446 -3.86538,-0.68791 -0.9465,0.0289 -2.09444,-0.12238 -2.63349,1.03501 -0.54821,-1.06645 -1.45626,-1.91696 -2.50507,-2.06304 -1.05022,-0.14457 -2.20768,0.53481 -2.59892,1.71453 -1.27211,-1.20865 -3.31152,-1.07911 -4.50638,0.28653 -0.2547,0.29062 -0.496,0.64477 -0.83926,0.73861 -0.25752,0.0703 -0.52211,-0.0236 -0.78105,-0.0701 -0.89464,-0.15984 -1.8549,0.29062 -2.42817,1.13661 -0.18767,0.27588 -0.36124,0.60922 -0.64629,0.69879 -0.34043,0.10763 -0.66145,-0.18479 -0.98248,-0.34742 -1.14124,-0.58 -2.40207,0.45889 -3.64384,0.63818 -0.82797,0.11853 -1.74167,-0.13367 -2.45004,0.40393 -0.19015,0.14315 -0.3609,0.36089 -0.38877,0.62685 -0.0603,0.61873 0.61348,0.90138 1.13172,0.96312 7.11058,0.85439 14.29561,0.95772 21.44359,0.31005 1.3836,-0.12527 2.67759,-0.55382 4.02379,-0.74401 1.65241,-0.23428 3.50978,0.17777 5.1689,0.26184 3.53342,0.17914 7.07072,0.30053 10.60979,0.30716 8.4582,0.0194 16.95943,-0.60745 25.2924,-2.61828 0.8763,-0.21057 1.79811,-0.46563 2.45851,-1.1931 0.86254,-0.94823 1.07068,-2.51491 0.81844,-3.86291 -0.32244,-1.71979 -2.65148,-7.55855 -4.826,-5.29305"
       style="fill:#60a431;fill-opacity:1;fill-rule:nonzero;stroke:none;stroke-width:0.0352777"
       id="path164"
       clip-path="url(#clipPath2018)" />
    <path
       transform="translate(25.546373,-2.0084033)"
       id="path164-3"
       style="fill:#60a431;fill-opacity:1;fill-rule:nonzero;stroke:none;stroke-width:0.0352777"
       d="m 67.163409,34.5661 c -0.399229,0.351862 -0.709165,0.906479 -1.187758,1.038616 -0.599182,0.16351 -1.141889,-0.415163 -1.725445,-0.268729 -0.667241,0.168756 -1.171952,1.015062 -1.626095,1.541936 -0.817798,-1.00292 -1.371338,-1.861993 -2.693812,-1.890211 -1.158076,-0.02533 -2.382914,0.65028 -3.0394,1.844665 0.121093,-0.220532 -1.768249,-0.443741 -1.935229,-0.416206 -0.621063,0.100498 -1.383873,0.401924 -1.684267,1.135766 -0.259431,-0.624939 -0.776575,-1.079738 -1.359593,-1.201566 -0.585974,-0.120442 -1.22544,0.09634 -1.688974,0.571353 0.109883,-0.30044 0.0072,-0.653676 -0.184361,-0.874521 -0.188449,-0.219376 -0.450107,-0.331547 -0.7079,-0.422505 -0.674096,-0.237318 -1.379456,-0.365275 -2.092429,-0.374672 -0.635958,-2.31124 -3.458623,-1.743993 -4.883252,-0.538961 -0.347225,0.294044 -0.670889,0.652369 -1.069916,0.823076 -0.281558,0.121543 -0.583114,0.141222 -0.878973,0.168724 -0.904742,0.08478 -1.807719,0.26101 -2.694629,0.527233 -1.14241,0.339644 -1.758379,1.503025 -2.752843,1.664384 -0.563658,0.09154 -1.029436,-0.109924 -1.638796,0.14415 -0.134722,0.05617 -1.573475,1.002867 -1.484166,1.093319 -0.814924,-0.824644 -2.147943,-0.845339 -3.045891,-0.04618 -0.252788,0.224515 -3.247905,-0.983527 -3.793092,-1.013333 -0.94554,-0.0515 -2.076509,-0.29961 -2.711798,0.807879 -0.455766,-1.109111 -1.288394,-2.033586 -2.321032,-2.26811 -1.03417,-0.233141 -2.24509,0.345604 -2.734996,1.487882 -1.164994,-1.312207 -3.208042,-1.356138 -4.514443,-0.09678 -0.278435,0.267966 -0.548908,0.600369 -0.898891,0.664753 -0.262555,0.0482 -0.518226,-0.06781 -0.772288,-0.136104 -0.877856,-0.235157 -1.8728672,0.132219 -2.5158372,0.92653 -0.210396,0.258966 -0.411618,0.57638 -0.703239,0.641446 -0.348333,0.07836 -0.64339,-0.240235 -0.949466,-0.429512 -1.087925,-0.674721 -2.43234,0.253467 -3.684843,0.32677 -0.83504,0.04787 -1.724053,-0.280934 -2.47547399,0.194637 -0.201608,0.126503 -0.390214,0.328974 -0.440545,0.591611 -0.11257,0.611384 0.534804,0.950173 1.04593899,1.055653 7.012471,1.454504 14.1628362,2.166971 21.3399932,2.128002 1.389239,-0.0074 2.714919,-0.324682 4.072401,-0.399988 1.666326,-0.09326 3.482049,0.474865 5.128056,0.699376 3.505485,0.478237 7.019739,0.89926 10.54549,1.206087 8.426066,0.736844 16.949827,0.833416 25.42334,-0.463276 0.891002,-0.135474 1.831132,-0.311416 2.550862,-0.980242 0.93987,-0.871642 1.28016,-2.415019 1.14318,-3.779558 -0.17539,-1.740943 -2.00073,-7.75623 -4.359591,-5.683362"
       clip-path="url(#clipPath2014)" />
    <path
       clip-path="url(#clipPath2010)"
       sodipodi:nodetypes="ssccssccssss"
       id="path5893"
       d="M 177.62431,61.975683 C 85.723713,61.702344 -31.058879,61.196644 -31.146413,61.071652 c -0.05545,-0.07918 -0.327959,-5.632956 -0.213135,-7.915196 l 0.208843,-4.149527 3.590774,-0.845317 C 40.623674,32.110265 116.25689,30.843427 186.66799,37.898481 c 5.07797,0.508801 9.27829,0.970713 9.33404,1.026474 v 0 l 7.80741,0.834544 c 23.906,2.555342 80.0944,8.919351 98.23604,8.919351 6.33841,0 13.54747,6.133574 23.70875,12.973734 1.51645,1.020811 -44.343,0.631791 -148.12992,0.323099 z"
       style="opacity:0.996;fill:#59ca77;fill-opacity:1;stroke:#da4b4b;stroke-width:0;paint-order:stroke fill markers"
       transform="matrix(1.5817008,0,0,1,-8.9059206,0.3023792)" />
    <rect
       clip-path="url(#clipPath1733)"
       y="-0.25831798"
       x="-39.513908"
       height="18.474304"
       width="14.608765"
       id="rect5915"
       style="opacity:0.996;fill:#e4eefd;fill-opacity:1;stroke:#da4b4b;stroke-width:0;paint-order:stroke fill markers" />
  </g>
</svg>
