<?xml version="1.0" encoding="UTF-8" standalone="no"?>
<svg
   xmlns:dc="http://purl.org/dc/elements/1.1/"
   xmlns:cc="http://creativecommons.org/ns#"
   xmlns:rdf="http://www.w3.org/1999/02/22-rdf-syntax-ns#"
   xmlns:svg="http://www.w3.org/2000/svg"
   xmlns="http://www.w3.org/2000/svg"
   xmlns:sodipodi="http://sodipodi.sourceforge.net/DTD/sodipodi-0.dtd"
   xmlns:inkscape="http://www.inkscape.org/namespaces/inkscape"
   sodipodi:docname="meadow-top.svg"
   inkscape:version="1.0 (6e3e5246a0, 2020-05-07)"
   id="svg5238"
   version="1.1"
   viewBox="0 0 327.26513 27.088951"
   height="27.088951mm"
   width="327.26514mm">
  <defs
     id="defs5232">
    <inkscape:path-effect
       lpeversion="1"
       is_visible="true"
       id="path-effect5873"
       effect="spiro" />
    <inkscape:path-effect
       lpeversion="1"
       is_visible="true"
       id="path-effect5807"
       effect="spiro" />
    <inkscape:path-effect
       lpeversion="1"
       is_visible="true"
       id="path-effect5803"
       effect="spiro" />
    <clipPath
       id="clipPath5930"
       clipPathUnits="userSpaceOnUse">
      <rect
         y="1.9145141"
         x="-29.128399"
         height="58.967907"
         width="326.56326"
         id="rect5932"
         style="opacity:0.996;fill:#ff0000;fill-opacity:1;stroke:#da4b4b;stroke-width:0;paint-order:stroke fill markers" />
    </clipPath>
    <clipPath
       id="clipPath5934"
       clipPathUnits="userSpaceOnUse">
      <rect
         y="1.9145141"
         x="-29.128399"
         height="58.967907"
         width="326.56326"
         id="rect5936"
         style="opacity:0.996;fill:#ff0000;fill-opacity:1;stroke:#da4b4b;stroke-width:0;paint-order:stroke fill markers" />
    </clipPath>
    <clipPath
       id="clipPath5938"
       clipPathUnits="userSpaceOnUse">
      <rect
         y="1.9145141"
         x="-29.128399"
         height="58.967907"
         width="326.56326"
         id="rect5940"
         style="opacity:0.996;fill:#ff0000;fill-opacity:1;stroke:#da4b4b;stroke-width:0;paint-order:stroke fill markers" />
    </clipPath>
    <clipPath
       id="clipPath5942"
       clipPathUnits="userSpaceOnUse">
      <rect
         y="1.9145141"
         x="-29.128399"
         height="58.967907"
         width="326.56326"
         id="rect5944"
         style="opacity:0.996;fill:#ff0000;fill-opacity:1;stroke:#da4b4b;stroke-width:0;paint-order:stroke fill markers" />
    </clipPath>
    <clipPath
       id="clipPath5946"
       clipPathUnits="userSpaceOnUse">
      <rect
         y="1.9145141"
         x="-29.128399"
         height="58.967907"
         width="326.56326"
         id="rect5948"
         style="opacity:0.996;fill:#ff0000;fill-opacity:1;stroke:#da4b4b;stroke-width:0;paint-order:stroke fill markers" />
    </clipPath>
    <clipPath
       id="clipPath5950"
       clipPathUnits="userSpaceOnUse">
      <rect
         y="1.9145141"
         x="-29.128399"
         height="58.967907"
         width="326.56326"
         id="rect5952"
         style="opacity:0.996;fill:#ff0000;fill-opacity:1;stroke:#da4b4b;stroke-width:0;paint-order:stroke fill markers" />
    </clipPath>
    <clipPath
       id="clipPath5954"
       clipPathUnits="userSpaceOnUse">
      <rect
         y="1.9145141"
         x="-29.128399"
         height="58.967907"
         width="326.56326"
         id="rect5956"
         style="opacity:0.996;fill:#ff0000;fill-opacity:1;stroke:#da4b4b;stroke-width:0;paint-order:stroke fill markers" />
    </clipPath>
    <clipPath
       id="clipPath5958"
       clipPathUnits="userSpaceOnUse">
      <rect
         y="1.9145141"
         x="-29.128399"
         height="58.967907"
         width="326.56326"
         id="rect5960"
         style="opacity:0.996;fill:#ff0000;fill-opacity:1;stroke:#da4b4b;stroke-width:0;paint-order:stroke fill markers" />
    </clipPath>
    <clipPath
       id="clipPath5962"
       clipPathUnits="userSpaceOnUse">
      <rect
         y="1.9145141"
         x="-29.128399"
         height="58.967907"
         width="326.56326"
         id="rect5964"
         style="opacity:0.996;fill:#ff0000;fill-opacity:1;stroke:#da4b4b;stroke-width:0;paint-order:stroke fill markers" />
    </clipPath>
    <clipPath
       id="clipPath5966"
       clipPathUnits="userSpaceOnUse">
      <rect
         y="1.9145141"
         x="-29.128399"
         height="58.967907"
         width="326.56326"
         id="rect5968"
         style="opacity:0.996;fill:#ff0000;fill-opacity:1;stroke:#da4b4b;stroke-width:0;paint-order:stroke fill markers" />
    </clipPath>
    <clipPath
       id="clipPath5970"
       clipPathUnits="userSpaceOnUse">
      <rect
         y="1.9145141"
         x="-29.128399"
         height="58.967907"
         width="326.56326"
         id="rect5972"
         style="opacity:0.996;fill:#ff0000;fill-opacity:1;stroke:#da4b4b;stroke-width:0;paint-order:stroke fill markers" />
    </clipPath>
    <clipPath
       id="clipPath5974"
       clipPathUnits="userSpaceOnUse">
      <rect
         y="1.9145141"
         x="-29.128399"
         height="58.967907"
         width="326.56326"
         id="rect5976"
         style="opacity:0.996;fill:#ff0000;fill-opacity:1;stroke:#da4b4b;stroke-width:0;paint-order:stroke fill markers" />
    </clipPath>
    <clipPath
       id="clipPath5978"
       clipPathUnits="userSpaceOnUse">
      <rect
         y="1.9145141"
         x="-29.128399"
         height="58.967907"
         width="326.56326"
         id="rect5980"
         style="opacity:0.996;fill:#ff0000;fill-opacity:1;stroke:#da4b4b;stroke-width:0;paint-order:stroke fill markers" />
    </clipPath>
    <clipPath
       id="clipPath5982"
       clipPathUnits="userSpaceOnUse">
      <rect
         y="1.9145141"
         x="-29.128399"
         height="58.967907"
         width="326.56326"
         id="rect5984"
         style="opacity:0.996;fill:#ff0000;fill-opacity:1;stroke:#da4b4b;stroke-width:0;paint-order:stroke fill markers" />
    </clipPath>
    <clipPath
       id="clipPath5986"
       clipPathUnits="userSpaceOnUse">
      <rect
         y="1.9145141"
         x="-29.128399"
         height="58.967907"
         width="326.56326"
         id="rect5988"
         style="opacity:0.996;fill:#ff0000;fill-opacity:1;stroke:#da4b4b;stroke-width:0;paint-order:stroke fill markers" />
    </clipPath>
    <clipPath
       id="clipPath5990"
       clipPathUnits="userSpaceOnUse">
      <rect
         y="1.9145141"
         x="-29.128399"
         height="58.967907"
         width="326.56326"
         id="rect5992"
         style="opacity:0.996;fill:#ff0000;fill-opacity:1;stroke:#da4b4b;stroke-width:0;paint-order:stroke fill markers" />
    </clipPath>
    <clipPath
       id="clipPath5994"
       clipPathUnits="userSpaceOnUse">
      <rect
         y="1.9145141"
         x="-29.128399"
         height="58.967907"
         width="326.56326"
         id="rect5996"
         style="opacity:0.996;fill:#ff0000;fill-opacity:1;stroke:#da4b4b;stroke-width:0;paint-order:stroke fill markers" />
    </clipPath>
    <clipPath
       id="clipPath5998"
       clipPathUnits="userSpaceOnUse">
      <rect
         y="1.9145141"
         x="-29.128399"
         height="58.967907"
         width="326.56326"
         id="rect6000"
         style="opacity:0.996;fill:#ff0000;fill-opacity:1;stroke:#da4b4b;stroke-width:0;paint-order:stroke fill markers" />
    </clipPath>
    <clipPath
       id="clipPath6002"
       clipPathUnits="userSpaceOnUse">
      <rect
         y="7.2359586"
         x="-110.09158"
         height="222.87083"
         width="1234.2549"
         id="rect6004"
         style="opacity:0.996;fill:#ff0000;fill-opacity:1;stroke:#da4b4b;stroke-width:0;paint-order:stroke fill markers" />
    </clipPath>
    <clipPath
       id="clipPath6006"
       clipPathUnits="userSpaceOnUse">
      <rect
         y="1.9145141"
         x="-29.128399"
         height="58.967907"
         width="326.56326"
         id="rect6008"
         style="opacity:0.996;fill:#ff0000;fill-opacity:1;stroke:#da4b4b;stroke-width:0;paint-order:stroke fill markers" />
    </clipPath>
    <clipPath
       id="clipPath6010"
       clipPathUnits="userSpaceOnUse">
      <rect
         y="1.9145141"
         x="-29.128399"
         height="58.967907"
         width="326.56326"
         id="rect6012"
         style="opacity:0.996;fill:#ff0000;fill-opacity:1;stroke:#da4b4b;stroke-width:0;paint-order:stroke fill markers" />
    </clipPath>
    <clipPath
       id="clipPath6014"
       clipPathUnits="userSpaceOnUse">
      <rect
         y="1.9145141"
         x="-29.128399"
         height="58.967907"
         width="326.56326"
         id="rect6016"
         style="opacity:0.996;fill:#ff0000;fill-opacity:1;stroke:#da4b4b;stroke-width:0;paint-order:stroke fill markers" />
    </clipPath>
    <clipPath
       id="clipPath6018"
       clipPathUnits="userSpaceOnUse">
      <rect
         y="1.9145141"
         x="-29.128399"
         height="58.967907"
         width="326.56326"
         id="rect6020"
         style="opacity:0.996;fill:#ff0000;fill-opacity:1;stroke:#da4b4b;stroke-width:0;paint-order:stroke fill markers" />
    </clipPath>
    <clipPath
       id="clipPath6022"
       clipPathUnits="userSpaceOnUse">
      <rect
         y="1.9145141"
         x="-29.128399"
         height="58.967907"
         width="326.56326"
         id="rect6024"
         style="opacity:0.996;fill:#ff0000;fill-opacity:1;stroke:#da4b4b;stroke-width:0;paint-order:stroke fill markers" />
    </clipPath>
    <clipPath
       clipPathUnits="userSpaceOnUse"
       id="clipPath1733">
      <rect
         style="opacity:0.996;fill:#ff0000;stroke:#da4b4b;stroke-width:0;paint-order:stroke fill markers"
         id="rect1735"
         width="326.74835"
         height="30.181034"
         x="-29.128672"
         y="20.51919" />
    </clipPath>
    <clipPath
       clipPathUnits="userSpaceOnUse"
       id="clipPath1737">
      <rect
         style="opacity:0.996;fill:#ff0000;stroke:#da4b4b;stroke-width:0;paint-order:stroke fill markers"
         id="rect1739"
         width="326.74835"
         height="30.181034"
         x="-29.128672"
         y="20.51919" />
    </clipPath>
    <clipPath
       clipPathUnits="userSpaceOnUse"
       id="clipPath1741">
      <rect
         style="opacity:0.996;fill:#ff0000;stroke:#da4b4b;stroke-width:0;paint-order:stroke fill markers"
         id="rect1743"
         width="326.74835"
         height="30.181034"
         x="-29.128672"
         y="20.51919" />
    </clipPath>
    <clipPath
       clipPathUnits="userSpaceOnUse"
       id="clipPath1745">
      <rect
         style="opacity:0.996;fill:#ff0000;stroke:#da4b4b;stroke-width:0;paint-order:stroke fill markers"
         id="rect1747"
         width="326.74835"
         height="30.181034"
         x="-29.128672"
         y="20.51919" />
    </clipPath>
    <clipPath
       clipPathUnits="userSpaceOnUse"
       id="clipPath1749">
      <rect
         style="opacity:0.996;fill:#ff0000;stroke:#da4b4b;stroke-width:0;paint-order:stroke fill markers"
         id="rect1751"
         width="326.74835"
         height="30.181034"
         x="-29.128672"
         y="20.51919" />
    </clipPath>
    <clipPath
       clipPathUnits="userSpaceOnUse"
       id="clipPath1753">
      <rect
         style="opacity:0.996;fill:#ff0000;stroke:#da4b4b;stroke-width:0;paint-order:stroke fill markers"
         id="rect1755"
         width="326.74835"
         height="30.181034"
         x="-29.128672"
         y="20.51919" />
    </clipPath>
    <clipPath
       clipPathUnits="userSpaceOnUse"
       id="clipPath1757">
      <rect
         style="opacity:0.996;fill:#ff0000;stroke:#da4b4b;stroke-width:0;paint-order:stroke fill markers"
         id="rect1759"
         width="326.74835"
         height="30.181034"
         x="-29.128672"
         y="20.51919" />
    </clipPath>
    <clipPath
       clipPathUnits="userSpaceOnUse"
       id="clipPath1761">
      <rect
         style="opacity:0.996;fill:#ff0000;stroke:#da4b4b;stroke-width:0;paint-order:stroke fill markers"
         id="rect1763"
         width="326.74835"
         height="30.181034"
         x="-29.128672"
         y="20.51919" />
    </clipPath>
    <clipPath
       clipPathUnits="userSpaceOnUse"
       id="clipPath1765">
      <rect
         style="opacity:0.996;fill:#ff0000;stroke:#da4b4b;stroke-width:0;paint-order:stroke fill markers"
         id="rect1767"
         width="326.74835"
         height="30.181034"
         x="-29.128672"
         y="20.51919" />
    </clipPath>
    <clipPath
       clipPathUnits="userSpaceOnUse"
       id="clipPath1769">
      <rect
         style="opacity:0.996;fill:#ff0000;stroke:#da4b4b;stroke-width:0;paint-order:stroke fill markers"
         id="rect1771"
         width="326.74835"
         height="30.181034"
         x="-29.128672"
         y="20.51919" />
    </clipPath>
    <clipPath
       clipPathUnits="userSpaceOnUse"
       id="clipPath1773">
      <rect
         style="opacity:0.996;fill:#ff0000;stroke:#da4b4b;stroke-width:0;paint-order:stroke fill markers"
         id="rect1775"
         width="326.74835"
         height="30.181034"
         x="-3.1123385"
         y="17.361605" />
    </clipPath>
    <clipPath
       clipPathUnits="userSpaceOnUse"
       id="clipPath1777">
      <rect
         style="opacity:0.996;fill:#ff0000;stroke:#da4b4b;stroke-width:0;paint-order:stroke fill markers"
         id="rect1779"
         width="326.74835"
         height="30.181034"
         x="-3.1123385"
         y="17.361605" />
    </clipPath>
    <clipPath
       clipPathUnits="userSpaceOnUse"
       id="clipPath1781">
      <rect
         style="opacity:0.996;fill:#ff0000;stroke:#da4b4b;stroke-width:0;paint-order:stroke fill markers"
         id="rect1783"
         width="326.74835"
         height="30.181034"
         x="-3.1123385"
         y="17.361605" />
    </clipPath>
    <clipPath
       clipPathUnits="userSpaceOnUse"
       id="clipPath1785">
      <rect
         style="opacity:0.996;fill:#ff0000;stroke:#da4b4b;stroke-width:0;paint-order:stroke fill markers"
         id="rect1787"
         width="326.74835"
         height="30.181034"
         x="-3.1123385"
         y="17.361605" />
    </clipPath>
    <clipPath
       clipPathUnits="userSpaceOnUse"
       id="clipPath1789">
      <rect
         style="opacity:0.996;fill:#ff0000;stroke:#da4b4b;stroke-width:0;paint-order:stroke fill markers"
         id="rect1791"
         width="326.74835"
         height="30.181034"
         x="-3.1123385"
         y="17.361605" />
    </clipPath>
    <clipPath
       clipPathUnits="userSpaceOnUse"
       id="clipPath1793">
      <rect
         style="opacity:0.996;fill:#ff0000;stroke:#da4b4b;stroke-width:0;paint-order:stroke fill markers"
         id="rect1795"
         width="326.74835"
         height="30.181034"
         x="-3.1123385"
         y="17.361605" />
    </clipPath>
    <clipPath
       clipPathUnits="userSpaceOnUse"
       id="clipPath1797">
      <rect
         style="opacity:0.996;fill:#ff0000;stroke:#da4b4b;stroke-width:0;paint-order:stroke fill markers"
         id="rect1799"
         width="326.74835"
         height="30.181034"
         x="-29.128672"
         y="20.51919" />
    </clipPath>
    <clipPath
       clipPathUnits="userSpaceOnUse"
       id="clipPath1801">
      <rect
         style="opacity:0.996;fill:#ff0000;stroke:#da4b4b;stroke-width:0;paint-order:stroke fill markers"
         id="rect1803"
         width="326.74835"
         height="30.181034"
         x="-29.128672"
         y="20.51919" />
    </clipPath>
    <clipPath
       clipPathUnits="userSpaceOnUse"
       id="clipPath1805">
      <rect
         style="opacity:0.996;fill:#ff0000;stroke:#da4b4b;stroke-width:0;paint-order:stroke fill markers"
         id="rect1807"
         width="1234.9543"
         height="114.07005"
         x="-110.09262"
         y="77.552849" />
    </clipPath>
    <clipPath
       clipPathUnits="userSpaceOnUse"
       id="clipPath1809">
      <rect
         style="opacity:0.996;fill:#ff0000;stroke:#da4b4b;stroke-width:0;paint-order:stroke fill markers"
         id="rect1811"
         width="326.74835"
         height="30.181034"
         x="-2.6028078"
         y="20.147047" />
    </clipPath>
    <clipPath
       clipPathUnits="userSpaceOnUse"
       id="clipPath1813">
      <rect
         style="opacity:0.996;fill:#ff0000;stroke:#da4b4b;stroke-width:0;paint-order:stroke fill markers"
         id="rect1815"
         width="326.74835"
         height="30.181034"
         x="-2.6028078"
         y="20.147047" />
    </clipPath>
    <clipPath
       clipPathUnits="userSpaceOnUse"
       id="clipPath1817">
      <rect
         style="opacity:0.996;fill:#ff0000;stroke:#da4b4b;stroke-width:0;paint-order:stroke fill markers"
         id="rect1819"
         width="326.74835"
         height="30.181034"
         x="-2.6028078"
         y="20.147047" />
    </clipPath>
    <clipPath
       clipPathUnits="userSpaceOnUse"
       id="clipPath1821">
      <rect
         style="opacity:0.996;fill:#ff0000;stroke:#da4b4b;stroke-width:0;paint-order:stroke fill markers"
         id="rect1823"
         width="326.74835"
         height="30.181034"
         x="-1.4737706"
         y="18.46735" />
    </clipPath>
    <clipPath
       clipPathUnits="userSpaceOnUse"
       id="clipPath1825">
      <rect
         style="opacity:0.996;fill:#ff0000;stroke:#da4b4b;stroke-width:0;paint-order:stroke fill markers"
         id="rect1827"
         width="326.74835"
         height="30.181034"
         x="-29.128672"
         y="20.51919" />
    </clipPath>
    <clipPath
       clipPathUnits="userSpaceOnUse"
       id="clipPath1833">
      <rect
         style="opacity:0.996;fill:#ffd5d5;stroke:#da4b4b;stroke-width:0;paint-order:stroke fill markers"
         id="rect1835"
         width="327.26514"
         height="27.088951"
         x="-16.733967"
         y="22.88965" />
    </clipPath>
    <clipPath
       clipPathUnits="userSpaceOnUse"
       id="clipPath1837">
      <rect
         style="opacity:0.996;fill:#ffd5d5;stroke:#da4b4b;stroke-width:0;paint-order:stroke fill markers"
         id="rect1839"
         width="327.26514"
         height="27.088951"
         x="-16.733967"
         y="22.88965" />
    </clipPath>
    <clipPath
       clipPathUnits="userSpaceOnUse"
       id="clipPath1841">
      <rect
         style="opacity:0.996;fill:#ffd5d5;stroke:#da4b4b;stroke-width:0;paint-order:stroke fill markers"
         id="rect1843"
         width="327.26514"
         height="27.088951"
         x="-16.733967"
         y="22.88965" />
    </clipPath>
    <clipPath
       clipPathUnits="userSpaceOnUse"
       id="clipPath1845">
      <rect
         style="opacity:0.996;fill:#ffd5d5;stroke:#da4b4b;stroke-width:0;paint-order:stroke fill markers"
         id="rect1847"
         width="327.26514"
         height="27.088951"
         x="-16.733967"
         y="22.88965" />
    </clipPath>
    <clipPath
       clipPathUnits="userSpaceOnUse"
       id="clipPath1849">
      <rect
         style="opacity:0.996;fill:#ffd5d5;stroke:#da4b4b;stroke-width:0;paint-order:stroke fill markers"
         id="rect1851"
         width="327.26514"
         height="27.088951"
         x="-16.733967"
         y="22.88965" />
    </clipPath>
    <clipPath
       clipPathUnits="userSpaceOnUse"
       id="clipPath1853">
      <rect
         style="opacity:0.996;fill:#ffd5d5;stroke:#da4b4b;stroke-width:0;paint-order:stroke fill markers"
         id="rect1855"
         width="327.26514"
         height="27.088951"
         x="-16.733967"
         y="22.88965" />
    </clipPath>
    <clipPath
       clipPathUnits="userSpaceOnUse"
       id="clipPath1857">
      <rect
         style="opacity:0.996;fill:#ffd5d5;stroke:#da4b4b;stroke-width:0;paint-order:stroke fill markers"
         id="rect1859"
         width="327.26514"
         height="27.088951"
         x="-16.733967"
         y="22.88965" />
    </clipPath>
    <clipPath
       clipPathUnits="userSpaceOnUse"
       id="clipPath1861">
      <rect
         style="opacity:0.996;fill:#ffd5d5;stroke:#da4b4b;stroke-width:0;paint-order:stroke fill markers"
         id="rect1863"
         width="327.26514"
         height="27.088951"
         x="-16.733967"
         y="22.88965" />
    </clipPath>
    <clipPath
       clipPathUnits="userSpaceOnUse"
       id="clipPath1865">
      <rect
         style="opacity:0.996;fill:#ffd5d5;stroke:#da4b4b;stroke-width:0;paint-order:stroke fill markers"
         id="rect1867"
         width="327.26514"
         height="27.088951"
         x="-16.733967"
         y="22.88965" />
    </clipPath>
    <clipPath
       clipPathUnits="userSpaceOnUse"
       id="clipPath1869">
      <rect
         style="opacity:0.996;fill:#ffd5d5;stroke:#da4b4b;stroke-width:0;paint-order:stroke fill markers"
         id="rect1871"
         width="327.26514"
         height="27.088951"
         x="-3.0661254"
         y="19.568096" />
    </clipPath>
    <clipPath
       clipPathUnits="userSpaceOnUse"
       id="clipPath1873">
      <rect
         style="opacity:0.996;fill:#ffd5d5;stroke:#da4b4b;stroke-width:0;paint-order:stroke fill markers"
         id="rect1875"
         width="327.26514"
         height="27.088951"
         x="-3.0661254"
         y="19.568096" />
    </clipPath>
    <clipPath
       clipPathUnits="userSpaceOnUse"
       id="clipPath1877">
      <rect
         style="opacity:0.996;fill:#ffd5d5;stroke:#da4b4b;stroke-width:0;paint-order:stroke fill markers"
         id="rect1879"
         width="327.26514"
         height="27.088951"
         x="-3.0661254"
         y="19.568096" />
    </clipPath>
    <clipPath
       clipPathUnits="userSpaceOnUse"
       id="clipPath1881">
      <rect
         style="opacity:0.996;fill:#ffd5d5;stroke:#da4b4b;stroke-width:0;paint-order:stroke fill markers"
         id="rect1883"
         width="327.26514"
         height="27.088951"
         x="-3.0661254"
         y="19.568096" />
    </clipPath>
    <clipPath
       clipPathUnits="userSpaceOnUse"
       id="clipPath1885">
      <rect
         style="opacity:0.996;fill:#ffd5d5;stroke:#da4b4b;stroke-width:0;paint-order:stroke fill markers"
         id="rect1887"
         width="327.26514"
         height="27.088951"
         x="-3.0661254"
         y="19.568096" />
    </clipPath>
    <clipPath
       clipPathUnits="userSpaceOnUse"
       id="clipPath1889">
      <rect
         style="opacity:0.996;fill:#ffd5d5;stroke:#da4b4b;stroke-width:0;paint-order:stroke fill markers"
         id="rect1891"
         width="327.26514"
         height="27.088951"
         x="-3.0661254"
         y="19.568096" />
    </clipPath>
    <clipPath
       clipPathUnits="userSpaceOnUse"
       id="clipPath1893">
      <rect
         style="opacity:0.996;fill:#ffd5d5;stroke:#da4b4b;stroke-width:0;paint-order:stroke fill markers"
         id="rect1895"
         width="327.26514"
         height="27.088951"
         x="-29.082458"
         y="22.725681" />
    </clipPath>
    <clipPath
       clipPathUnits="userSpaceOnUse"
       id="clipPath1897">
      <rect
         style="opacity:0.996;fill:#ffd5d5;stroke:#da4b4b;stroke-width:0;paint-order:stroke fill markers"
         id="rect1899"
         width="327.26514"
         height="27.088951"
         x="-29.082458"
         y="22.725681" />
    </clipPath>
    <clipPath
       clipPathUnits="userSpaceOnUse"
       id="clipPath1901">
      <rect
         style="opacity:0.996;fill:#ffd5d5;stroke:#da4b4b;stroke-width:0;paint-order:stroke fill markers"
         id="rect1903"
         width="1236.9076"
         height="102.38344"
         x="-109.91795"
         y="85.892342" />
    </clipPath>
    <clipPath
       clipPathUnits="userSpaceOnUse"
       id="clipPath1905">
      <rect
         style="opacity:0.996;fill:#ffd5d5;stroke:#da4b4b;stroke-width:0;paint-order:stroke fill markers"
         id="rect1907"
         width="327.26514"
         height="27.088951"
         x="-2.5565946"
         y="22.353537" />
    </clipPath>
    <clipPath
       clipPathUnits="userSpaceOnUse"
       id="clipPath1909">
      <rect
         style="opacity:0.996;fill:#ffd5d5;stroke:#da4b4b;stroke-width:0;paint-order:stroke fill markers"
         id="rect1911"
         width="327.26514"
         height="27.088951"
         x="-2.5565946"
         y="22.353537" />
    </clipPath>
    <clipPath
       clipPathUnits="userSpaceOnUse"
       id="clipPath1913">
      <rect
         style="opacity:0.996;fill:#ffd5d5;stroke:#da4b4b;stroke-width:0;paint-order:stroke fill markers"
         id="rect1915"
         width="327.26514"
         height="27.088951"
         x="-2.5565946"
         y="22.353537" />
    </clipPath>
    <clipPath
       clipPathUnits="userSpaceOnUse"
       id="clipPath1917">
      <rect
         style="opacity:0.996;fill:#ffd5d5;stroke:#da4b4b;stroke-width:0;paint-order:stroke fill markers"
         id="rect1919"
         width="327.26514"
         height="27.088951"
         x="-1.4275575"
         y="20.67384" />
    </clipPath>
    <clipPath
       clipPathUnits="userSpaceOnUse"
       id="clipPath1921">
      <rect
         style="opacity:0.996;fill:#ffd5d5;stroke:#da4b4b;stroke-width:0;paint-order:stroke fill markers"
         id="rect1923"
         width="327.26514"
         height="27.088951"
         x="-29.082458"
         y="22.725681" />
    </clipPath>
  </defs>
  <sodipodi:namedview
     inkscape:snap-nodes="false"
     fit-margin-bottom="0"
     fit-margin-right="0"
     fit-margin-left="0"
     fit-margin-top="0"
     inkscape:window-maximized="0"
     inkscape:window-y="287"
     inkscape:window-x="359"
     inkscape:window-height="720"
     inkscape:window-width="1439"
     inkscape:snap-bbox-midpoints="false"
     inkscape:snap-bbox-edge-midpoints="false"
     inkscape:bbox-nodes="false"
     inkscape:bbox-paths="false"
     inkscape:snap-bbox="true"
     showgrid="false"
     inkscape:document-rotation="0"
     inkscape:current-layer="layer1"
     inkscape:document-units="mm"
     inkscape:cy="35.128618"
     inkscape:cx="1043.4954"
     inkscape:zoom="1.979899"
     inkscape:pageshadow="2"
     inkscape:pageopacity="0.0"
     borderopacity="1.0"
     bordercolor="#666666"
     pagecolor="#ffffff"
     id="base" />
  <metadata
     id="metadata5235">
    <rdf:RDF>
      <cc:Work
         rdf:about="">
        <dc:format>image/svg+xml</dc:format>
        <dc:type
           rdf:resource="http://purl.org/dc/dcmitype/StillImage" />
        <dc:title />
      </cc:Work>
    </rdf:RDF>
  </metadata>
  <g
     transform="translate(29.082458,-22.725681)"
     id="layer1"
     inkscape:groupmode="layer"
     inkscape:label="Layer 1">
    <rect
       clip-path="url(#clipPath1921)"
       y="-0.25831798"
       x="-39.513908"
       height="55.134109"
       width="342.80356"
       id="rect5895"
       style="opacity:0.993;fill:#e4eefd;fill-opacity:1;stroke:#da4b4b;stroke-width:0;paint-order:stroke fill markers" />
    <path
       transform="translate(-27.654901,2.0518413)"
       clip-path="url(#clipPath1917)"
       d="m 76.753787,29.694938 c -0.667659,-0.365004 -1.702758,-0.525957 -2.042838,-0.658916 -2.684292,-1.044663 -6.620265,-0.78802 -8.939499,1.038442 -2.235846,-1.756519 -5.260416,-1.430013 -7.065767,0.763865 -1.999128,-3.261868 -5.81984,-4.388652 -8.50219,-2.505177 -0.501202,-2.140677 -2.129021,-3.82718 -3.833442,-3.972935 -0.836704,-0.07295 -1.658451,0.192107 -2.495387,0.156261 -2.289501,-0.09946 -4.291608,-2.379245 -6.562081,-2.930346 -1.911437,-0.464394 -3.926786,0.428025 -5.136092,2.273769 -1.777686,-1.587276 -4.275035,-1.56279 -5.889916,0.05577 -1.858012,-2.545598 -5.060521,-3.202804 -7.25094,-1.483575 -0.429381,0.335369 -0.826807,0.753642 -1.312719,0.937421 -0.72589,0.276515 -1.524101,-0.0097 -2.270267,-0.306861 -1.57142,-0.628302 -3.205442,-1.325318 -4.78674,-0.992853 -1.5825045,0.330718 -3.0564755,2.092019 -2.8079485,4.176518 -1.765408,-0.636473 -3.804085,-1.21834 -5.221305,0.125201 -0.557376,0.529414 -0.943521,1.306259 -1.259937,2.105939 -1.90392003,4.819808 -1.49575103,11.158482 1.021538,15.832938 0.732125,1.359367 1.670429,2.620806 2.852746,3.231952 1.060458,0.54522 2.214482,0.518767 3.330742,0.479575 14.5443695,-0.519717 29.0247675,-2.017881 43.3627495,-4.485827 1.915141,-0.330821 3.843401,-0.683277 5.64183,-1.522143 2.968258,-1.388472 5.438534,-3.264967 8.695105,-3.57153 3.35978,-0.316088 6.661927,1.090159 10.003768,1.823575 9.516968,2.08684 19.025798,-1.08086 28.601453,-0.376837 6.41325,0.47173 12.77397,2.676021 19.18733,3.099825 2.69262,0.176133 1.00474,-4.327805 0.26633,-5.934499 -0.65502,-1.426599 -1.46531,-2.586619 -2.29421,-3.839942 -0.54797,-0.829639 -0.88086,-1.315694 -1.78783,-1.401079 -0.26476,-0.02571 -2.27168,0.329792 -2.1097,0.979872 -0.21682,-0.86574 -0.93655,-1.421343 -1.62898,-1.530421 -0.69232,-0.104861 -1.36959,0.142297 -2.02453,0.388929 -0.20746,-2.3131 -2.45666,-2.504852 -3.87573,-2.098704 -0.10671,0.0301 -0.20873,0.06345 -0.30443,0.101731 -0.30452,0.113945 -0.60518,0.275868 -0.83401,0.552449 -0.21841,0.266507 -0.36245,0.634718 -0.39929,1.029608 0.10466,-1.106989 -1.57211,-1.743856 -2.12116,-1.802534 -0.77989,-0.08439 -1.8698,0.153423 -2.0826,1.277511 -2.00208,-1.606182 -4.62808,-1.68868 -6.55049,-0.20855 -0.700126,-1.122864 -1.899726,-1.685599 -2.944475,-1.385143 -1.058393,0.304311 -1.830181,1.433303 -2.042105,2.790766 -0.5264,-1.281093 -1.265673,-2.1704 -2.494551,-2.093406 -0.836973,0.05204 -1.634803,0.86683 -1.663002,1.950812 -0.368516,-0.73343 -1.008727,-1.235341 -1.667876,-1.307695 -0.658538,-0.07007 -1.316204,0.292384 -1.710566,0.945187 -0.89116,-1.38267 -2.6456,-1.625305 -3.630696,-0.503758 -0.143419,-1.364254 -1.266255,-2.276965 -2.313955,-2.538932 -1.140435,-0.285076 -2.728229,0.09931 -2.520277,2.021531 -0.03079,-0.290657 -0.26652,-0.512176 -0.586061,-0.687799"
       style="fill:#60a431;fill-opacity:1;fill-rule:nonzero;stroke:none;stroke-width:0.0409166"
       id="path132" />
    <path
       transform="translate(-28.510859,3.059048)"
       clip-path="url(#clipPath1913)"
       d="m 25.904285,30.696158 2.011891,13.929078 h -4.023783 z"
       style="fill:#3f702d;fill-opacity:1;fill-rule:nonzero;stroke:none;stroke-width:0.0352777"
       id="path134" />
    <path
       transform="translate(-28.510859,3.059048)"
       clip-path="url(#clipPath1909)"
       d="m 31.169947,30.731629 2.011892,13.927666 h -4.025195 z"
       style="fill:#71bb41;fill-opacity:1;fill-rule:nonzero;stroke:none;stroke-width:0.0352777"
       id="path142" />
    <path
       transform="translate(-28.510859,3.059048)"
       clip-path="url(#clipPath1905)"
       d="m 21.880501,31.586266 2.011892,13.927666 h -4.025194 z"
       style="fill:#71bb41;fill-opacity:1;fill-rule:nonzero;stroke:none;stroke-width:0.0352777"
       id="path138" />
    <path
       clip-path="url(#clipPath1901)"
       sodipodi:nodetypes="ssscsssccsssscs"
       transform="scale(0.26458333)"
       id="path5879"
       d="m 1158.4932,238.2428 c -3.3335,-1.02103 -19.4707,-5.68446 -35.8605,-10.36318 -121.142,-34.58203 -236.15117,-58.00168 -371.23102,-75.59482 l -10.10152,-1.31565 8.08122,-1.25916 c 14.88156,-2.31875 62.41629,-8.17394 82.83251,-10.20307 58.28188,-5.79255 106.69598,-8.78081 159.31559,-9.83343 l 33.04652,-0.66107 c -12.907,31.98659 51.532,2.49278 51.5897,0.32507 l 6.3135,0.0102 c 9.3596,0.0151 54.444,1.87488 72.9835,3.01066 19.0614,1.16775 60.5116,4.2229 60.8325,4.48374 0.1229,0.0999 -11.4686,23.37358 -25.7589,51.71937 l -25.9822,51.53778 z"
       style="opacity:0.996;fill:#ffffff;stroke:#da4b4b;stroke-width:0;paint-order:stroke fill markers" />
    <path
       clip-path="url(#clipPath1897)"
       sodipodi:nodetypes="sscsssccsssscs"
       id="path5881"
       d="M 293.26297,60.723738 C 260.34126,50.834994 225.89136,43.624054 187.82513,38.653835 l -2.6727,-0.348967 2.13816,-0.333153 c 3.93741,-0.613503 16.51431,-2.162688 21.9161,-2.699562 15.43845,-1.534406 28.33666,-2.330895 42.16743,-2.603924 l 22.37815,-0.08674 c 0,1.1e-5 0,1.1e-5 0,1.1e-5 l 1.67045,0.0027 c 2.47639,0.004 14.40498,0.496062 19.31022,0.796571 5.23086,0.320458 16.01216,1.118386 16.10055,1.191609 0.0354,0.02933 -3.03151,6.187302 -6.81537,13.684385 l -6.87975,13.631055 z"
       style="opacity:0.996;fill:#ace4bb;fill-opacity:1;stroke:#da4b4b;stroke-width:0;paint-order:stroke fill markers" />
    <path
       clip-path="url(#clipPath1893)"
       sodipodi:nodetypes="ssccssccssss"
       id="path5893"
       d="M 177.62431,61.975683 C 85.723713,61.702344 -31.058879,61.196644 -31.146413,61.071652 c -0.05545,-0.07918 -0.327959,-5.632956 -0.213135,-7.915196 l 0.208843,-4.149527 3.590774,-0.845317 C 40.623674,32.110265 116.25689,30.843427 186.66799,37.898481 c 5.07797,0.508801 9.27829,0.970713 9.33404,1.026474 v 0 l 7.80741,0.834544 c 23.906,2.555342 80.0944,8.919351 98.23604,8.919351 6.33841,0 13.54747,6.133574 23.70875,12.973734 1.51645,1.020811 -44.343,0.631791 -148.12992,0.323099 z"
       style="opacity:0.996;fill:#82d799;fill-opacity:1;stroke:#da4b4b;stroke-width:0;paint-order:stroke fill markers" />
    <path
       transform="translate(-29.625972,0.17188782)"
       clip-path="url(#clipPath1889)"
       d="m 37.12025,45.151067 c 0,0.381706 1.835503,0.690386 4.09963,0.690386 2.265539,0 4.101042,-0.30868 4.101042,-0.690386 0,-0.381706 -1.835503,-0.691797 -4.101042,-0.691797 -2.264127,0 -4.09963,0.310091 -4.09963,0.691797"
       style="fill:#79a630;fill-opacity:1;fill-rule:nonzero;stroke:none;stroke-width:0.0352777"
       id="path208" />
    <path
       transform="translate(-29.625972,0.17188782)"
       clip-path="url(#clipPath1885)"
       d="m 45.320922,45.151067 c 0.07161,-0.597958 0.110419,-1.236134 0.110419,-1.899003 0,-3.439583 -1.053041,-9.049455 -2.352322,-9.049455 -1.301044,0 -2.353733,5.609872 -2.353733,9.049455 0,0.662869 0.03845,1.301045 0.111478,1.899003"
       style="fill:#71bb41;fill-opacity:1;fill-rule:nonzero;stroke:none;stroke-width:0.0352777"
       id="path210" />
    <path
       transform="translate(-29.625972,0.17188782)"
       clip-path="url(#clipPath1881)"
       d="m 43.415216,45.151067 -0.336197,-6.855883 -0.413455,6.855883 z"
       style="fill:#3f702d;fill-opacity:1;fill-rule:nonzero;stroke:none;stroke-width:0.0352777"
       id="path212" />
    <path
       transform="translate(-29.625972,0.17188782)"
       clip-path="url(#clipPath1877)"
       d="m 33.181839,45.211745 c 0,0.304447 1.763889,0.551039 3.938411,0.551039 2.175933,0 3.938411,-0.246592 3.938411,-0.551039 0,-0.305859 -1.762478,-0.55245 -3.938411,-0.55245 -2.174522,0 -3.938411,0.246591 -3.938411,0.55245"
       style="fill:#79a630;fill-opacity:1;fill-rule:nonzero;stroke:none;stroke-width:0.0352777"
       id="path214" />
    <path
       transform="translate(-29.625972,0.17188782)"
       clip-path="url(#clipPath1873)"
       d="m 41.058661,45.211745 c 0.05503,-0.456142 0.08537,-0.9398 0.08537,-1.444273 0,-2.612672 -0.800453,-6.876344 -1.788583,-6.876344 -0.988131,0 -1.788584,4.263672 -1.788584,6.876344 0,0.504473 0.02999,0.988131 0.08396,1.444273"
       style="fill:#60b441;fill-opacity:1;fill-rule:nonzero;stroke:none;stroke-width:0.0352777"
       id="path216" />
    <path
       transform="translate(-29.625972,0.17188782)"
       clip-path="url(#clipPath1869)"
       d="M 39.610508,45.211745 39.35545,40.001217 39.041125,45.211745 Z"
       style="fill:#3f702d;fill-opacity:1;fill-rule:nonzero;stroke:none;stroke-width:0.0352777"
       id="path218" />
    <path
       clip-path="url(#clipPath1865)"
       d="m 274.29117,25.615306 2.01186,13.92943 h -4.02378 z"
       style="fill:#3f702d;fill-opacity:1;fill-rule:nonzero;stroke:none;stroke-width:0.0352777"
       id="path136"
       transform="translate(-14.757629,-0.20854331)" />
    <path
       clip-path="url(#clipPath1861)"
       d="m 271.08573,41.09343 c 0,0.304448 1.76389,0.552801 3.93848,0.552801 2.17593,0 3.93841,-0.248353 3.93841,-0.552801 0,-0.304449 -1.76248,-0.55245 -3.93841,-0.55245 -2.17459,0 -3.93848,0.248001 -3.93848,0.55245"
       style="fill:#79a630;fill-opacity:1;fill-rule:nonzero;stroke:none;stroke-width:0.0352777"
       id="path202"
       transform="translate(-14.757629,-0.20854331)" />
    <path
       clip-path="url(#clipPath1857)"
       d="m 278.96262,41.09343 c 0.055,-0.454732 0.0854,-0.9398 0.0854,-1.442861 0,-2.614083 -0.80045,-6.877756 -1.78858,-6.877756 -0.98813,0 -1.78859,4.263673 -1.78859,6.877756 0,0.503061 0.0289,0.988129 0.084,1.442861"
       style="fill:#60b441;fill-opacity:1;fill-rule:nonzero;stroke:none;stroke-width:0.0352777"
       id="path204"
       transform="translate(-14.757629,-0.20854331)" />
    <path
       clip-path="url(#clipPath1853)"
       d="m 277.51411,41.09343 -0.2547,-5.208765 -0.31433,5.208765 z"
       style="fill:#3f702d;fill-opacity:1;fill-rule:nonzero;stroke:none;stroke-width:0.0352777"
       id="path206"
       transform="translate(-14.757629,-0.20854331)" />
    <path
       clip-path="url(#clipPath1849)"
       d="m 273.32766,40.988655 c 0.073,-0.597959 0.11191,-1.236134 0.11191,-1.899002 0,-3.439584 -1.05449,-9.049457 -2.35384,-9.049457 -1.29964,0 -2.3537,5.609873 -2.3537,9.049457 0,0.662868 0.0384,1.301043 0.11151,1.899002"
       style="fill:#71bb41;fill-opacity:1;fill-rule:nonzero;stroke:none;stroke-width:0.0352777"
       id="path222"
       transform="translate(-14.757629,-0.20854331)" />
    <path
       clip-path="url(#clipPath1845)"
       d="m 271.42196,40.988655 -0.33623,-6.854119 -0.41342,6.854119 z"
       style="fill:#3f702d;fill-opacity:1;fill-rule:nonzero;stroke:none;stroke-width:0.0352777"
       id="path224"
       transform="translate(-14.757629,-0.20854331)" />
    <path
       clip-path="url(#clipPath1841)"
       d="m 261.18865,41.049331 c 0,0.304449 1.76389,0.552805 3.93845,0.552805 2.17593,0 3.9383,-0.248356 3.9383,-0.552805 0,-0.305858 -1.76237,-0.55245 -3.9383,-0.55245 -2.17456,0 -3.93845,0.246592 -3.93845,0.55245"
       style="fill:#79a630;fill-opacity:1;fill-rule:nonzero;stroke:none;stroke-width:0.0352777"
       id="path226"
       transform="translate(-14.757629,-0.20854331)" />
    <path
       clip-path="url(#clipPath1837)"
       d="m 269.0654,41.049331 c 0.0554,-0.456141 0.0854,-0.9398 0.0854,-1.44286 0,-2.614083 -0.80048,-6.877754 -1.78854,-6.877754 -0.98817,0 -1.78869,4.263671 -1.78869,6.877754 0,0.50306 0.0305,0.986719 0.0854,1.44286"
       style="fill:#60b441;fill-opacity:1;fill-rule:nonzero;stroke:none;stroke-width:0.0352777"
       id="path228"
       transform="translate(-14.757629,-0.20854331)" />
    <path
       clip-path="url(#clipPath1833)"
       d="m 267.61873,41.049331 -0.25647,-5.208762 -0.31432,5.208762 z"
       style="fill:#3f702d;fill-opacity:1;fill-rule:nonzero;stroke:none;stroke-width:0.0352777"
       id="path230"
       transform="translate(-14.757629,-0.20854331)" />
    <rect
       clip-path="url(#clipPath1733)"
       y="-0.25831798"
       x="-39.513908"
       height="18.474304"
       width="14.608765"
       id="rect5915"
       style="opacity:0.996;fill:#e4eefd;fill-opacity:1;stroke:#da4b4b;stroke-width:0;paint-order:stroke fill markers" />
  </g>
</svg>
