<?xml version="1.0" encoding="UTF-8" standalone="no"?>
<svg
   xmlns:dc="http://purl.org/dc/elements/1.1/"
   xmlns:cc="http://creativecommons.org/ns#"
   xmlns:rdf="http://www.w3.org/1999/02/22-rdf-syntax-ns#"
   xmlns:svg="http://www.w3.org/2000/svg"
   xmlns="http://www.w3.org/2000/svg"
   xmlns:sodipodi="http://sodipodi.sourceforge.net/DTD/sodipodi-0.dtd"
   xmlns:inkscape="http://www.inkscape.org/namespaces/inkscape"
   sodipodi:docname="sky.svg"
   inkscape:version="1.0 (6e3e5246a0, 2020-05-07)"
   id="svg4536"
   version="1.1"
   viewBox="0 0 297 210"
   height="210mm"
   width="297mm">
  <defs
     id="defs4530">
    <inkscape:path-effect
       lpeversion="1"
       is_visible="true"
       id="path-effect5107"
       effect="spiro" />
    <inkscape:path-effect
       lpeversion="1"
       is_visible="true"
       id="path-effect5103"
       effect="spiro" />
  </defs>
  <sodipodi:namedview
     inkscape:window-maximized="0"
     inkscape:window-y="67"
     inkscape:window-x="643"
     inkscape:window-height="1050"
     inkscape:window-width="1439"
     inkscape:snap-bbox-midpoints="true"
     inkscape:snap-bbox-edge-midpoints="true"
     inkscape:bbox-nodes="true"
     inkscape:bbox-paths="true"
     inkscape:snap-bbox="true"
     showgrid="false"
     inkscape:document-rotation="0"
     inkscape:current-layer="layer1"
     inkscape:document-units="mm"
     inkscape:cy="388.27576"
     inkscape:cx="665.95034"
     inkscape:zoom="0.7"
     inkscape:pageshadow="2"
     inkscape:pageopacity="0.0"
     borderopacity="1.0"
     bordercolor="#666666"
     pagecolor="#ffffff"
     id="base" />
  <metadata
     id="metadata4533">
    <rdf:RDF>
      <cc:Work
         rdf:about="">
        <dc:format>image/svg+xml</dc:format>
        <dc:type
           rdf:resource="http://purl.org/dc/dcmitype/StillImage" />
        <dc:title></dc:title>
      </cc:Work>
    </rdf:RDF>
  </metadata>
  <g
     id="layer1"
     inkscape:groupmode="layer"
     inkscape:label="Layer 1">
    <path
       id="path5109"
       d="M 297.77541,66.917024 302.54942,-6.1773778 -7.0396417,-3.8876591 -0.45152889,101.62933"
       style="fill:none;stroke:#000000;stroke-width:0.264583px;stroke-linecap:butt;stroke-linejoin:miter;stroke-opacity:1" />
    <path
       transform="scale(0.26458333)"
       id="path5113"
       d="M -1.216425,371.15118 C -3.3872779,344.29383 -25.210914,-12.304562 -24.71412,-12.801356 c 0.596462,-0.596462 159.99787,-1.932978 773.12324,-6.482323 215.96906,-1.602475 392.90308,-2.681518 393.18678,-2.397874 0.2836,0.283644 -3.4821,61.904285 -8.3682,136.934753 l -8.8839,136.41905 -53.5885,1.7753 C 728.5165,264.78539 392.84911,303.69056 57.661154,370.86911 c -31.156612,6.24442 -56.9486019,11.3535 -57.31553476,11.3535 -0.36693286,0 -1.06985286,-4.98215 -1.56204424,-11.07143 z"
       style="opacity:0.996;fill:#e4eefd;stroke:#da4b4b;stroke-width:0;paint-order:stroke fill markers;fill-opacity:1" />
    <path
       id="path5115"
       d="m -0.51653132,125.08298 0.0650024,-23.45365"
       style="fill:none;stroke:#000000;stroke-width:0.264583px;stroke-linecap:butt;stroke-linejoin:miter;stroke-opacity:1" />
    <path
       id="path5117"
       d="m 297.77541,66.917024 -0.056,69.966746 0.72771,75.64537 -301.9293618,-1.66229 2.96570712,-85.78384"
       style="fill:none;stroke:#000000;stroke-width:0.264583px;stroke-linecap:butt;stroke-linejoin:miter;stroke-opacity:1" />
    <path
       transform="scale(0.26458333)"
       id="path5119"
       d="m 800.36337,800.367 c -91.92857,-0.55727 -312.10714,-1.8044 -489.28572,-2.7714 -177.17857,-0.967 -322.328093,-1.92492 -322.554498,-2.12872 -0.803205,-0.72303 10.62379219,-319.28323 11.4837809,-320.14322 0.48097286,-0.48097 20.6865041,1.74902 44.9011801,4.95552 189.699437,25.12002 339.064717,37.71981 547.598117,46.19294 60.66051,2.46476 313.6717,2.44346 372.85714,-0.0314 49.44053,-2.06737 122.19773,-5.56894 143.75663,-6.91856 l 14.4709,-0.9059 0.8694,63.41357 c 0.4781,34.87745 1.2617,98.61 1.7413,141.62785 l 0.8719,78.21429 -79.7836,-0.24589 c -43.881,-0.13524 -154.99796,-0.70182 -246.92653,-1.2591 z"
       style="opacity:0.996;fill:#e4eefd;fill-opacity:1;stroke:#da4b4b;stroke-width:0;paint-order:stroke fill markers" />
    <path
       transform="scale(0.26458333)"
       id="path5121"
       d="m 655.293,525.80813 c -7.46428,-0.24702 -34.78571,-1.14689 -60.71428,-1.99973 C 405.69486,517.59564 219.89578,501.72451 23.50729,475.02695 l -23.92857191,-3.25291 v -43.17329 c 0,-39.87139 0.19119957,-43.23222 2.50000001,-43.94406 5.5764421,-1.71931 119.9014019,-24.14324 163.9285719,-32.15329 295.89929,-53.8342 610.49489,-87.67798 897.14281,-96.51345 14.1429,-0.43593 33.5893,-1.1703 43.2143,-1.63194 l 17.5,-0.83934 v 131.36277 131.36277 l -16.0714,0.92382 c -121.5886,6.98918 -165.5802,8.23597 -306.07142,8.6745 -73.07143,0.22808 -138.96429,0.2126 -146.42858,-0.0344 z"
       style="opacity:0.996;fill:#e4eefd;fill-opacity:1;stroke:#da4b4b;stroke-width:0;paint-order:stroke fill markers" />
    <path
       id="path5123"
       d="m 156.84816,140.14635 c -62.141879,-2.51933 -99.886119,-5.7801 -161.046986,-13.91307 -3.4109952,-0.45355 -6.62805,-0.91762 -7.149011,-1.0312 l -0.947201,-0.2065 0.157625,-12.0107 c 0.08669,-6.60587 0.271732,-12.12722 0.411198,-12.26963 0.290249,-0.2964 15.7845176,-3.514525 33.262622,-6.908561 C 106.49573,77.308591 194.24944,67.1573 279.48394,63.967493 c 8.9126,-0.333544 17.78017,-0.710448 19.70573,-0.837565 l 3.50103,-0.23112 v 37.382962 37.38298 l -1.30036,0.20401 c -1.30398,0.20457 -18.0895,1.11519 -35.31031,1.91559 -11.52538,0.5357 -97.88805,0.82188 -109.23187,0.362 z"
       style="opacity:0.996;fill:#d7e5fc;fill-opacity:1;stroke:#da4b4b;stroke-width:0;paint-order:stroke fill markers" />
    <path
       transform="scale(0.26458333)"
       id="path5125"
       d="m 675.79354,280.09849 v -0.34876 l 0.42411,-0.0534 c 0.23326,-0.0294 3.77902,-0.37391 7.87947,-0.76567 39.78789,-3.8014 78.47512,-7.13433 117.63392,-10.13425 4.8125,-0.36868 8.88058,-0.67039 9.04018,-0.67047 0.27782,-1.3e-4 0.29018,0.0147 0.29018,0.34824 v 0.34838 l -0.51339,0.0545 c -0.28237,0.03 -4.22991,0.33637 -8.77232,0.68087 -29.77122,2.25785 -67.48287,5.44384 -97.76786,8.25973 -8.49761,0.79011 -13.91699,1.29937 -17.57862,1.65189 -2.04381,0.19676 -5.16245,0.49705 -6.93031,0.6673 -1.76786,0.17026 -3.32478,0.30974 -3.45982,0.30997 -0.22602,3.7e-4 -0.24554,-0.0273 -0.24554,-0.34836 z"
       style="opacity:0.996;fill:#d7e5fc;fill-opacity:1;stroke:#da4b4b;stroke-width:0;paint-order:stroke fill markers" />
    <path
       d="m 275.2919,59.638384 h -42.22714 c 0,-2.2158 1.79564,-4.01285 4.01284,-4.01285 1.55434,0 2.89948,0.88618 3.56482,2.17875 0.52106,-0.61312 1.29681,-1.0033 2.16359,-1.0033 0.80081,0 1.52294,0.33232 2.038,0.86572 0.31432,-1.90324 1.9625,-3.35703 3.95499,-3.35703 0.97578,0 1.86866,0.34854 2.56469,0.92745 0.90805,-2.24084 3.1048,-3.82129 5.67055,-3.82129 2.82505,0 5.20206,1.91523 5.9048,4.51838 0.73201,-0.9839 1.899,-1.62454 3.21909,-1.62454 2.1015,0 3.82129,1.61501 3.99662,3.671 0.51506,-0.71367 1.35185,-1.17969 2.29835,-1.17969 1.5681,0 2.8388,1.27071 2.8388,2.8374"
       style="fill:#ffffff;fill-opacity:1;fill-rule:nonzero;stroke:none;stroke-width:0.0352777"
       id="path168" />
    <path
       d="m 179.21604,155.47793 h -42.22852 c 0,-1.56668 1.27028,-2.83739 2.83877,-2.83739 0.94643,0 1.78428,0.46567 2.29831,1.17969 0.17501,-2.05599 1.89618,-3.671 3.9963,-3.671 1.32045,0 2.48751,0.64064 3.2191,1.62454 0.70309,-2.60315 3.0801,-4.51873 5.90515,-4.51873 2.56716,0 4.7625,1.58079 5.67055,3.82164 0.69603,-0.57891 1.58891,-0.92745 2.56434,-0.92745 1.99284,0 3.64102,1.45379 3.95499,3.35668 0.51541,-0.53305 1.23755,-0.86537 2.03835,-0.86537 0.86678,0 1.64253,0.39017 2.16323,1.0033 0.6657,-1.29258 2.01225,-2.17875 3.56659,-2.17875 2.21579,0 4.01284,1.79705 4.01284,4.01284"
       style="fill:#ffffff;fill-opacity:1;fill-rule:nonzero;stroke:none;stroke-width:0.0352777"
       id="path170" />
    <path
       d="M 57.747915,118.38529 H 11.293023 c 0,-1.99616 1.397416,-3.61521 3.122882,-3.61521 1.041154,0 1.962855,0.59332 2.528333,1.50308 0.192529,-2.61961 2.085957,-4.67734 4.396265,-4.67734 1.452602,0 2.736465,0.81626 3.541275,2.06988 0.773454,-3.31676 3.38837,-5.75747 6.496154,-5.75747 2.824094,0 5.239147,2.01414 6.238078,4.86928 0.765692,-0.73761 1.747934,-1.18169 2.820989,-1.18169 2.192293,0 4.005425,1.85232 4.350821,4.27686 0.566992,-0.67918 1.361402,-1.1026 2.242355,-1.1026 0.953525,0 1.806923,0.49713 2.379737,1.27834 0.732316,-1.64692 2.213636,-2.77602 3.923539,-2.77602 2.437559,0 4.414464,2.28968 4.414464,5.11289"
       style="fill:#ffffff;fill-opacity:1;fill-rule:nonzero;stroke:none;stroke-width:0.0417658"
       id="path170-9" />
    <path
       d="m 279.56321,89.294742 c -9.22479,0.752475 -18.45487,1.262239 -27.68776,1.685219 -4.61504,0.234598 -9.23255,0.380648 -13.849,0.569384 l -13.855,0.431094 -13.85746,0.297745 c -4.62068,0.05256 -9.2396,0.151694 -13.8617,0.156986 -9.24101,0.06068 -18.48485,0.03457 -27.73574,-0.236714 9.22302,-0.756709 18.4531,-1.266472 27.686,-1.689453 4.61504,-0.235655 9.2329,-0.379236 13.84935,-0.567972 l 13.855,-0.428625 13.85746,-0.294922 c 4.62033,-0.05362 9.2396,-0.148873 13.8617,-0.156986 9.24101,-0.06068 18.48484,-0.03457 27.73715,0.234244"
       style="fill:#ffffff;fill-opacity:1;fill-rule:nonzero;stroke:none;stroke-width:0.0352777"
       id="path24" />
    <path
       id="path24-6"
       style="fill:#ffffff;fill-opacity:1;fill-rule:nonzero;stroke:none;stroke-width:0.0352777"
       d="m 136.1292,177.10856 c -9.25296,0.21354 -18.49706,0.18445 -27.73891,0.0686 -4.62087,-0.0348 -9.239045,-0.15811 -13.858647,-0.23876 l -13.856572,-0.37719 -13.851258,-0.51043 c -4.615892,-0.21681 -9.232733,-0.3871 -13.847286,-0.65122 -9.228837,-0.47802 -18.455441,-1.04285 -27.674791,-1.85289 9.251446,-0.21786 18.495546,-0.18877 27.737403,-0.0729 4.62093,0.0337 9.239308,0.15955 13.858911,0.2402 l 13.856429,0.37965 13.851092,0.51326 c 4.615598,0.21579 9.232569,0.38991 13.847289,0.65121 9.22884,0.47801 18.45543,1.04285 27.67634,1.8505" />
    <path
       id="path168-7"
       style="fill:#ffffff;fill-opacity:1;fill-rule:nonzero;stroke:none;stroke-width:0.0362641"
       d="m 281.88739,191.47914 h -42.49872 c 0,-2.32649 1.80719,-4.2133 4.03864,-4.2133 1.56435,0 2.91814,0.93044 3.58775,2.28758 0.52441,-0.64375 1.30516,-1.05342 2.17751,-1.05342 0.80596,0 1.53273,0.34892 2.05111,0.90897 0.31634,-1.99831 1.97512,-3.52473 3.98041,-3.52473 0.98207,0 1.88068,0.36596 2.58119,0.97378 0.91389,-2.35277 3.12477,-4.01217 5.70703,-4.01217 2.84321,0 5.23551,2.0109 5.94277,4.74409 0.73672,-1.03305 1.91121,-1.7057 3.23979,-1.7057 2.11502,0 3.84587,1.69569 4.02233,3.85438 0.51837,-0.74932 1.36054,-1.23862 2.31312,-1.23862 1.5782,0 2.85707,1.33419 2.85707,2.97914" />
    <path
       id="path170-9-4"
       style="fill:#ffffff;fill-opacity:1;fill-rule:nonzero;stroke:none;stroke-width:0.0417658"
       d="m 177.39152,26.940315 h -46.45489 c 0,-1.99616 1.39742,-3.61521 3.12288,-3.61521 1.04116,0 1.96286,0.59332 2.52833,1.50308 0.19253,-2.61961 2.08596,-4.67734 4.39627,-4.67734 1.4526,0 2.73646,0.81626 3.54128,2.06988 0.77345,-3.31676 3.38837,-5.75747 6.49615,-5.75747 2.82409,0 5.23915,2.01414 6.23808,4.86928 0.76569,-0.73761 1.74793,-1.18169 2.82099,-1.18169 2.19229,0 4.00542,1.85232 4.35082,4.27686 0.56699,-0.67918 1.3614,-1.1026 2.24235,-1.1026 0.95353,0 1.80693,0.49713 2.37974,1.27834 0.73231,-1.64692 2.21363,-2.77602 3.92354,-2.77602 2.43756,0 4.41446,2.28968 4.41446,5.11289" />
  </g>
</svg>
